<?xml version="1.0" encoding="UTF-8" standalone="no"?>
<!-- Created with Inkscape (http://www.inkscape.org/) -->

<svg
   version="1.1"
   width="360"
   height="540"
   id="svg2"
   inkscape:version="0.48.4 r9939"
   sodipodi:docname="English_pattern_playing_cards_deck.svg"
   inkscape:export-filename="D:\Users\Дмитрий\Desktop\яяяяПрочее\cards\Anglo-american_playing_cards_deck.png"
   inkscape:export-xdpi="90"
   inkscape:export-ydpi="90"
   xmlns:inkscape="http://www.inkscape.org/namespaces/inkscape"
   xmlns:sodipodi="http://sodipodi.sourceforge.net/DTD/sodipodi-0.dtd"
   xmlns="http://www.w3.org/2000/svg"
   xmlns:svg="http://www.w3.org/2000/svg"
   xmlns:rdf="http://www.w3.org/1999/02/22-rdf-syntax-ns#"
   xmlns:cc="http://creativecommons.org/ns#"
   xmlns:dc="http://purl.org/dc/elements/1.1/">
  <sodipodi:namedview
     pagecolor="#ffffff"
     bordercolor="#666666"
     borderopacity="1"
     objecttolerance="10"
     gridtolerance="10"
     guidetolerance="10"
     inkscape:pageopacity="0"
     inkscape:pageshadow="2"
     inkscape:window-width="1366"
     inkscape:window-height="741"
     id="namedview7377"
     showgrid="true"
     inkscape:zoom="0.22960784"
     inkscape:cx="2550"
     inkscape:cy="1155"
     inkscape:window-x="-9"
     inkscape:window-y="-9"
     inkscape:window-maximized="1"
     inkscape:current-layer="svg2"
     inkscape:showpageshadow="2"
     inkscape:pagecheckerboard="0"
     inkscape:deskcolor="#d1d1d1">
    <inkscape:grid
       type="xygrid"
       id="grid10354"
       empspacing="5"
       visible="true"
       enabled="true"
       snapvisiblegridlinesonly="true"
       spacingx="390"
       spacingy="570"
       originy="30"
       originx="30" />
  </sodipodi:namedview>
  <metadata
     id="metadata14752">
    <rdf:RDF>
      <cc:Work
         rdf:about="">
        <dc:format>image/svg+xml</dc:format>
        <dc:type
           rdf:resource="http://purl.org/dc/dcmitype/StillImage" />
        <dc:title />
      </cc:Work>
    </rdf:RDF>
  </metadata>
  <defs
     id="defs14750" />
  <g
     transform="translate(0,-512.36218)"
     id="g3088">
    <rect
       rx="29.944447"
       ry="29.944447"
       y="512.86218"
       x="0.5"
       height="539"
       width="359"
       id="rect6472-8"
       style="fill:#ffffff;stroke:#000000;stroke-width:1" />
    <path
       style="fill:#000000;fill-opacity:1;stroke:none"
       id="rect3163-6-0-0-2-6"
       d="m 20,542.36208 v 14.99999 5 h 10 c 2.77,0 5.00001,2.23 5.00001,5.00005 v 14.99996 c 0,2.77001 -2.23001,5.00001 -5.00001,5.00001 -2.77,0 -5,-2.23 -5,-5.00001 v -4.99999 h -5 v 4.99999 c 0,5.54 4.46,10 10,10 5.54001,0 10,-4.46 10,-10 v -14.99996 c 0,-5.54005 -4.45999,-10.00005 -10,-10.00005 h -5 v -9.99998 h 5 10 v -5.00001 H 30 25 Z"
       inkscape:connector-curvature="0" />
    <path
       style="fill:#000000;fill-opacity:1;stroke:none"
       id="rect3163-6-0-0-2-4-7"
       d="m 340,1022.3622 v -15 -5 h -10 c -2.77,0 -5.00001,-2.23 -5.00001,-5.00006 v -15.00002 c 0,-2.77 2.23001,-5 5.00001,-5 2.77,0 5,2.23 5,5 v 5 h 5 v -5 c 0,-5.54 -4.46,-10 -10,-10 -5.54001,0 -10,4.46 -10,10 v 15.00002 c 0,5.54006 4.45999,10.00006 10,10.00006 h 5 v 10 h -5 -10 v 5 h 10 5 z"
       inkscape:connector-curvature="0" />
    <g
       transform="translate(60,557.36218)"
       id="g3008">
      <path
         inkscape:connector-curvature="0"
         style="fill:#000000;fill-opacity:1;fill-rule:nonzero;stroke:none"
         d="m 35.007873,55.984252 c 0.992126,4.003937 4.996063,14.031496 11.976378,14.031496 9,0 13.003937,-8.007874 13.003937,-18 C 59.988188,45 57.437006,40.393701 54.992125,35.007874 52.405511,29.267717 48.614172,24.129921 44.999999,18.992126 40.358267,12.401575 30.01181,0 30.01181,0 c 0,0 -10.381889,12.401575 -15.023621,18.992126 C 11.374015,24.129921 7.582677,29.267717 4.9960629,35.007874 2.5866141,40.393701 0,45 0,52.015748 c 0,9.992126 4.0039369,18 13.003937,18 6.980314,0 10.984251,-10.027559 12.01181,-14.031496 0.992126,-0.992126 0.992126,0 0.992126,1.027559 -0.992126,7.972441 -0.992126,9.992126 -2.019685,15.980315 C 22.996062,79.015748 19.984251,90 19.984251,90 c 5.031496,-1.984252 15.023622,-1.984252 20.019685,0 0,0 -3.011811,-10.984252 -4.003937,-17.007874 -0.992126,-5.988189 -0.992126,-8.007874 -1.984252,-15.980315 0,-1.027559 0,-2.019685 0.992126,-1.027559 z"
         id="path3010" />
    </g>
    <g
       transform="translate(240,557.36218)"
       id="g3022">
      <path
         inkscape:connector-curvature="0"
         style="fill:#000000;fill-opacity:1;fill-rule:nonzero;stroke:none"
         d="m 35.007873,55.984252 c 0.992126,4.003937 4.996063,14.031496 11.976378,14.031496 9,0 13.003937,-8.007874 13.003937,-18 C 59.988188,45 57.437006,40.393701 54.992125,35.007874 52.405511,29.267717 48.614172,24.129921 44.999999,18.992126 40.358267,12.401575 30.01181,0 30.01181,0 c 0,0 -10.381889,12.401575 -15.023621,18.992126 C 11.374015,24.129921 7.582677,29.267717 4.9960629,35.007874 2.5866141,40.393701 0,45 0,52.015748 c 0,9.992126 4.0039369,18 13.003937,18 6.980314,0 10.984251,-10.027559 12.01181,-14.031496 0.992126,-0.992126 0.992126,0 0.992126,1.027559 -0.992126,7.972441 -0.992126,9.992126 -2.019685,15.980315 C 22.996062,79.015748 19.984251,90 19.984251,90 c 5.031496,-1.984252 15.023622,-1.984252 20.019685,0 0,0 -3.011811,-10.984252 -4.003937,-17.007874 -0.992126,-5.988189 -0.992126,-8.007874 -1.984252,-15.980315 0,-1.027559 0,-2.019685 0.992126,-1.027559 z"
         id="path3024" />
    </g>
    <g
       transform="translate(150,737.36218)"
       id="g3036">
      <path
         inkscape:connector-curvature="0"
         style="fill:#000000;fill-opacity:1;fill-rule:nonzero;stroke:none"
         d="m 35.007873,55.984252 c 0.992126,4.003937 4.996063,14.031496 11.976378,14.031496 9,0 13.003937,-8.007874 13.003937,-18 C 59.988188,45 57.437006,40.393701 54.992125,35.007874 52.405511,29.267717 48.614172,24.129921 44.999999,18.992126 40.358267,12.401575 30.01181,0 30.01181,0 c 0,0 -10.381889,12.401575 -15.023621,18.992126 C 11.374015,24.129921 7.582677,29.267717 4.9960629,35.007874 2.5866141,40.393701 0,45 0,52.015748 c 0,9.992126 4.0039369,18 13.003937,18 6.980314,0 10.984251,-10.027559 12.01181,-14.031496 0.992126,-0.992126 0.992126,0 0.992126,1.027559 -0.992126,7.972441 -0.992126,9.992126 -2.019685,15.980315 C 22.996062,79.015748 19.984251,90 19.984251,90 c 5.031496,-1.984252 15.023622,-1.984252 20.019685,0 0,0 -3.011811,-10.984252 -4.003937,-17.007874 -0.992126,-5.988189 -0.992126,-8.007874 -1.984252,-15.980315 0,-1.027559 0,-2.019685 0.992126,-1.027559 z"
         id="path3038" />
    </g>
    <g
       transform="matrix(1,0,0,-1,60,1007.3622)"
       id="g3050">
      <path
         inkscape:connector-curvature="0"
         style="fill:#000000;fill-opacity:1;fill-rule:nonzero;stroke:none"
         d="m 35.007873,55.984252 c 0.992126,4.003937 4.996063,14.031496 11.976378,14.031496 9,0 13.003937,-8.007874 13.003937,-18 C 59.988188,45 57.437006,40.393701 54.992125,35.007874 52.405511,29.267717 48.614172,24.129921 44.999999,18.992126 40.358267,12.401575 30.01181,0 30.01181,0 c 0,0 -10.381889,12.401575 -15.023621,18.992126 C 11.374015,24.129921 7.582677,29.267717 4.9960629,35.007874 2.5866141,40.393701 0,45 0,52.015748 c 0,9.992126 4.0039369,18 13.003937,18 6.980314,0 10.984251,-10.027559 12.01181,-14.031496 0.992126,-0.992126 0.992126,0 0.992126,1.027559 -0.992126,7.972441 -0.992126,9.992126 -2.019685,15.980315 C 22.996062,79.015748 19.984251,90 19.984251,90 c 5.031496,-1.984252 15.023622,-1.984252 20.019685,0 0,0 -3.011811,-10.984252 -4.003937,-17.007874 -0.992126,-5.988189 -0.992126,-8.007874 -1.984252,-15.980315 0,-1.027559 0,-2.019685 0.992126,-1.027559 z"
         id="path3052" />
    </g>
    <g
       transform="matrix(1,0,0,-1,240,1007.3622)"
       id="g3064">
      <path
         inkscape:connector-curvature="0"
         style="fill:#000000;fill-opacity:1;fill-rule:nonzero;stroke:none"
         d="m 35.007873,55.984252 c 0.992126,4.003937 4.996063,14.031496 11.976378,14.031496 9,0 13.003937,-8.007874 13.003937,-18 C 59.988188,45 57.437006,40.393701 54.992125,35.007874 52.405511,29.267717 48.614172,24.129921 44.999999,18.992126 40.358267,12.401575 30.01181,0 30.01181,0 c 0,0 -10.381889,12.401575 -15.023621,18.992126 C 11.374015,24.129921 7.582677,29.267717 4.9960629,35.007874 2.5866141,40.393701 0,45 0,52.015748 c 0,9.992126 4.0039369,18 13.003937,18 6.980314,0 10.984251,-10.027559 12.01181,-14.031496 0.992126,-0.992126 0.992126,0 0.992126,1.027559 -0.992126,7.972441 -0.992126,9.992126 -2.019685,15.980315 C 22.996062,79.015748 19.984251,90 19.984251,90 c 5.031496,-1.984252 15.023622,-1.984252 20.019685,0 0,0 -3.011811,-10.984252 -4.003937,-17.007874 -0.992126,-5.988189 -0.992126,-8.007874 -1.984252,-15.980315 0,-1.027559 0,-2.019685 0.992126,-1.027559 z"
         id="path3066" />
    </g>
    <path
       style="fill:#000000;fill-opacity:1;stroke:none"
       d="m 32.5,630.36218 c 0.5,2 2.5,7 6,7 4.5,0 6.5,-4 6.5,-9 0,-3.5 -1.289475,-5.80614 -2.5,-8.5 -1.28894,-2.86836 -3.18966,-5.4287 -5,-8 -2.32265,-3.29895 -7.5,-9.5 -7.5,-9.5 0,0 -5.17735,6.20105 -7.5,9.5 -1.81034,2.5713 -3.71106,5.13164 -5,8 -1.210525,2.69386 -2.5,5 -2.5,8.5 0,5 2,9 6.5,9 3.5,0 5.5,-5 6,-7 0.5,-0.5 0.5,0 0.5,0.5 -0.5,4 -0.5,5 -1,8 -0.5,3 -2,8.5 -2,8.5 2.5,-1 7.5,-1 10,0 0,0 -1.5,-5.5 -2,-8.5 -0.5,-3 -0.5,-4 -1,-8 0,-0.5 0,-1 0.5,-0.5 z"
       id="path3037-7-4-72"
       inkscape:connector-curvature="0"
       sodipodi:nodetypes="cssaacaassccsccscc" />
    <path
       style="fill:#000000;fill-opacity:1;stroke:none"
       d="m 332.5,934.36218 c 0.5,-2 2.5,-7 6,-7 4.5,0 6.5,4 6.5,9 0,3.5 -1.28947,5.80614 -2.5,8.5 -1.28894,2.86836 -3.18966,5.4287 -5,8 -2.32265,3.29895 -7.5,9.5 -7.5,9.5 0,0 -5.17735,-6.20105 -7.5,-9.5 -1.81034,-2.5713 -3.71106,-5.13164 -5,-8 -1.21053,-2.69386 -2.5,-5 -2.5,-8.5 0,-5 2,-9 6.5,-9 3.5,0 5.5,5 6,7 0.5,0.5 0.5,0 0.5,-0.5 -0.5,-4 -0.5,-5 -1,-8 -0.5,-3 -2,-8.5 -2,-8.5 2.5,1 7.5,1 10,0 0,0 -1.5,5.5 -2,8.5 -0.5,3 -0.5,4 -1,8 0,0.5 0,1 0.5,0.5 z"
       id="path3037-7-4-1-2"
       inkscape:connector-curvature="0"
       sodipodi:nodetypes="cssaacaassccsccscc" />
  </g>
</svg>
