<svg xml:space="preserve" width="204.749" height="265.892" shape-rendering="geometricPrecision" text-rendering="geometricPrecision" image-rendering="optimizeQuality" fill-rule="evenodd" clip-rule="evenodd" viewBox="0 0 120.44 156.346" xmlns="http://www.w3.org/2000/svg">
    <path fill="#ee3167" d="M.351 78.566c-.54-.96-.41-1.65.07-2.62 19.9-36.97 49.93-59.65 87.77-75.86 1.29-.55 3.19.96 2.73 2.31-5.64 16.41-9.62 32.39-11.93 49.56-2.1 15.82-2.68 32.18-.55 49.27 2.26 19.39 6.89 35.48 12.47 52.82.62 1.93-1.35 2.81-2.86 2.07-39.4-19.4-69.26-44.76-87.7-77.55Z"/>
    <path fill="#0098da" fill-opacity=".639" d="M117.721 112.686c-21.78-6.83-41.27-18.41-58.54-33.71-1.15-1.02-1.02-2.45.02-3.44 17.15-16.4 36.61-29.27 58.13-38.37 1.89-.81 3.45.76 2.89 2.92-6.1 23.39-7.44 46.5.08 69.67.62 1.93-.94 3.44-2.58 2.93z"/>
    <path fill="#5abae7" d="M117.721 112.686c-14.34-4.5-27.69-11.06-40.06-19.37-.86-13.25-.93-19.14.46-33.75a189.84 189.84 0 0 1 39.21-22.4c1.89-.81 3.45.76 2.89 2.92-6.1 23.39-7.44 46.5.08 69.67.62 1.93-.94 3.44-2.58 2.93z"/>
</svg>
