<?xml version="1.0" encoding="UTF-8"?>
<!DOCTYPE svg PUBLIC "-//W3C//DTD SVG 1.1//EN" "http://www.w3.org/Graphics/SVG/1.1/DTD/svg11.dtd">
<!-- Creator: CorelDRAW 2017 -->
<svg xmlns="http://www.w3.org/2000/svg" xml:space="preserve" width="803px" height="308px" version="1.1" shape-rendering="geometricPrecision" text-rendering="geometricPrecision" image-rendering="optimizeQuality" fill-rule="evenodd" clip-rule="evenodd"
viewBox="0 0 580.41 222.3"
 xmlns:xlink="http://www.w3.org/1999/xlink">
 <g id="Layer_x0020_1">
  <metadata id="CorelCorpID_0Corel-Layer"/>
  <path fill="#EE3167" d="M0.5 111.71c-0.76,-1.37 -0.59,-2.35 0.09,-3.72 28.29,-52.55 70.97,-84.78 124.75,-107.82 1.83,-0.79 4.54,1.36 3.88,3.28 -8.02,23.33 -13.68,46.04 -16.95,70.44 -0.16,1.45 -0.82,2.61 -1.92,3.5 -12.88,8.61 -24.91,18.66 -36.13,29.39 -1.53,1.94 -1.64,3.89 0,5.84 10.04,8.66 22.88,18.64 34.92,26.7 1.27,0.82 2.35,2.95 2.35,4.6 3.2,27.55 9.79,50.42 17.72,75.07 0.88,2.74 -1.93,3.99 -4.07,2.93 -55.99,-27.56 -98.44,-63.61 -124.64,-110.21z"/>
  <path fill="#0098DA" d="M170.74 160.45c-31.07,-9.74 -58.87,-26.26 -83.5,-48.08 -1.65,-1.46 -1.45,-3.49 0.03,-4.91 24.46,-23.39 52.22,-41.74 82.91,-54.74 2.7,-1.14 4.93,1.09 4.12,4.18 -8.69,33.36 -10.61,66.33 0.11,99.37 0.9,2.75 -1.32,4.91 -3.67,4.18z"/>
  <polygon fill="#4B4B4D" fill-rule="nonzero" points="263.96,193.89 244.79,193.89 244.79,41.65 337.91,41.65 337.91,58.31 263.96,58.31 263.96,106.47 325.13,106.47 325.13,121.76 263.96,121.76 "/>
  <polygon id="1" fill="#4B4B4D" fill-rule="nonzero" points="376.45,193.89 359.1,193.89 359.1,41.65 376.45,41.65 "/>
  <path id="2" fill="#4B4B4D" fill-rule="nonzero" d="M486 160.56l16.2 3.35c-2.96,9.59 -8.78,17.5 -17.38,23.78 -8.63,6.27 -18.79,9.39 -30.47,9.39 -15.41,0 -27.84,-5.4 -37.39,-16.24 -9.51,-10.84 -14.27,-25.03 -14.27,-42.61 0,-17.91 4.95,-32.44 14.84,-43.48 9.89,-11.06 22.29,-16.58 37.24,-16.58 14.68,0 26.55,5.1 35.49,15.33 8.94,10.19 13.54,25.49 13.77,45.84l-81.94 0c0,17 3.58,28.49 10.73,34.46 7.19,5.93 14.76,8.9 22.75,8.9 14.38,0 24.53,-7.38 30.43,-22.14zm-1.14 -34.23c-0.15,-6.35 -1.18,-11.98 -3.12,-16.89 -1.94,-4.95 -5.25,-9.13 -9.85,-12.59 -4.64,-3.47 -10.2,-5.21 -16.66,-5.21 -8.75,0 -16.13,3.11 -22.22,9.39 -6.09,6.28 -9.47,14.68 -10.23,25.3l62.08 0z"/>
  <path id="3" fill="#4B4B4D" fill-rule="nonzero" d="M580.41 182.02l0 13.92c-6.2,0.76 -11.56,1.14 -16.09,1.14 -21.83,0 -32.75,-11.37 -32.75,-34.16l0 -67.86 -19.85 0 0 -13.7 19.85 0 0.69 -28.33 16.66 -1.56 0 29.89 25.1 0 0 13.7 -25.1 0 0 70.71c0,11.61 5.97,17.39 17.95,17.39 4,0 8.52,-0.38 13.54,-1.14z"/>
 </g>
</svg>
