<svg xmlns="http://www.w3.org/2000/svg" width="96.461" height="96.461" viewBox="0 0 25.522 25.522"><path fill="#323232" fill-rule="evenodd" d="M111.919 246.917c0-7.047 5.713-12.76 12.76-12.76 7.048 0 12.762 5.713 12.762 12.76 0 7.048-5.714 12.761-12.761 12.761-7.048 0-12.761-5.713-12.761-12.76m17.491-3.454a1.276 1.276 0 0 1 0 1.804l-4.7 4.7a1.85 1.85 0 0 1-2.613 0l-2.148-2.147a1.276 1.276 0 0 1 1.805-1.805l1.65 1.65 4.202-4.202a1.276 1.276 0 0 1 1.804 0" clip-rule="evenodd" style="fill:#ff005f;fill-opacity:1;stroke-width:1.27609" transform="translate(-111.919 -234.156)"/></svg>