<svg xmlns="http://www.w3.org/2000/svg" width="120" height="120" viewBox="0 0 31.75 31.75"><g fill="#1c274c"><path d="M53.649 394.359c0-3.186 0-4.778 1.012-5.768s2.64-.99 5.898-.99 4.887 0 5.899.99 1.012 2.582 1.012 5.768v3.378c0 3.186 0 4.778-1.012 5.768s-2.641.99-5.899.99-4.886 0-5.898-.99-1.012-2.582-1.012-5.768z" opacity=".5" style="opacity:.975741;fill:#00cbff;fill-opacity:1;stroke-width:1.53569" transform="translate(-37.996 -386.39)scale(1.03373)"/><path d="M36.756 383.916c0 3.185 0 4.778 1.012 5.767s2.641.99 5.899.99 4.886 0 5.898-.99c1.012-.989 1.012-2.582 1.012-5.767v-3.379c0-3.185 0-4.777-1.012-5.767s-2.64-.99-5.898-.99-4.887 0-5.899.99-1.012 2.582-1.012 5.767zm16.893-4.761c0-1.67 0-2.504.263-3.163a3.52 3.52 0 0 1 1.87-1.939c.635-.273 1.44-.273 3.05-.273h3.455c1.61 0 2.415 0 3.05.273a3.52 3.52 0 0 1 1.87 1.94c.263.658.263 1.493.263 3.162 0 1.67 0 2.505-.263 3.163a3.52 3.52 0 0 1-1.87 1.94c-.635.272-1.44.272-3.05.272h-3.455c-1.61 0-2.415 0-3.05-.272a3.52 3.52 0 0 1-1.87-1.94c-.263-.658-.263-1.493-.263-3.163" style="fill:#ff005f;fill-opacity:1;stroke-width:1.53569" transform="translate(-37.996 -386.39)scale(1.03373)"/><path d="M36.756 399.12c0 1.669 0 2.504.263 3.162a3.52 3.52 0 0 0 1.87 1.94c.635.272 1.44.272 3.05.272h3.455c1.61 0 2.415 0 3.05-.272a3.52 3.52 0 0 0 1.87-1.94c.263-.658.263-1.493.263-3.163s0-2.504-.263-3.163a3.52 3.52 0 0 0-1.87-1.939c-.635-.273-1.44-.273-3.05-.273H41.94c-1.61 0-2.415 0-3.05.273a3.52 3.52 0 0 0-1.87 1.94c-.263.658-.263 1.493-.263 3.162" opacity=".5" style="opacity:1;fill:#00cbff;fill-opacity:.976471;stroke-width:1.53569" transform="translate(-37.996 -386.39)scale(1.03373)"/></g></svg>