<svg xmlns="http://www.w3.org/2000/svg" width="120" height="114.783" viewBox="0 0 31.75 30.37"><path d="M26 22H15c-1.1 0-2-.9-2-2v-5c0-1.1.9-2 2-2h11c1.1 0 2 .9 2 2v5c0 1.1-.9 2-2 2" style="fill:#ff005f;fill-opacity:1" transform="translate(-6.902)scale(1.38043)"/><path d="M26 15h-4c-.6 0-1-.4-1-1v-2c0-1.1.9-2 2-2h2c1.1 0 2 .9 2 2v2c0 .6-.4 1-1 1" style="fill:#ff005f;fill-opacity:1" transform="translate(-6.902)scale(1.38043)"/><path d="M18 12H7c-1.1 0-2-.9-2-2V5c0-1.1.9-2 2-2h11c1.1 0 2 .9 2 2v5c0 1.1-.9 2-2 2" style="fill:#00cbff;fill-opacity:1" transform="translate(-6.902)scale(1.38043)"/><path d="M11 5H7c-.6 0-1-.4-1-1V2c0-1.1.9-2 2-2h2c1.1 0 2 .9 2 2v2c0 .6-.4 1-1 1m7 0h-4c-.6 0-1-.4-1-1V2c0-1.1.9-2 2-2h2c1.1 0 2 .9 2 2v2c0 .6-.4 1-1 1" style="fill:#00cbff;fill-opacity:1" transform="translate(-6.902)scale(1.38043)"/></svg>