<svg xmlns="http://www.w3.org/2000/svg" width="120" height="108" viewBox="0 0 31.75 28.575"><path fill="#1c274c" fill-rule="evenodd" d="M47.562 532.738h1.456c5.488 0 8.232 0 9.936-1.705s1.705-4.449 1.705-9.937v-8.734c-.211.003-.508.003-.727.003H36.648c-.22 0-.516 0-.727-.003v8.734c0 5.488 0 8.232 1.705 9.937s4.448 1.705 9.936 1.705m-3.527-14.381c-.11.267-.11.606-.11 1.284s0 1.017.11 1.285c.148.356.431.64.788.787.267.111.606.111 1.284.111h4.366c.678 0 1.017 0 1.284-.11a1.46 1.46 0 0 0 .788-.788c.11-.268.11-.607.11-1.285s0-1.017-.11-1.284a1.46 1.46 0 0 0-.788-.788c-.267-.11-.606-.11-1.284-.11h-4.366c-.678 0-1.017 0-1.284.11-.357.148-.64.431-.788.788" clip-rule="evenodd" style="fill:#00cbff;fill-opacity:.976471;stroke-width:1.45521" transform="translate(-36.805 -552.593)scale(1.0909)"/><g style="opacity:1;fill:#ff005f;fill-opacity:1"><path fill="#1c274c" d="M2 5c0-.943 0-1.414.293-1.707S3.057 3 4 3h16c.943 0 1.414 0 1.707.293S22 4.057 22 5s0 1.414-.293 1.707S20.943 7 20 7H4c-.943 0-1.414 0-1.707-.293S2 5.943 2 5" style="fill:#ff005f;fill-opacity:1" transform="translate(-3.175 -4.762)scale(1.5875)"/></g></svg>
