<svg xmlns="http://www.w3.org/2000/svg" width="120" height="119.374" viewBox="0 0 31.75 31.584"><path fill="url(#a)" d="M126.135 257.236c-14.588 0-13.678 6.326-13.678 6.326l.018 6.554h13.92v1.967h-19.452s-9.332-1.06-9.332 13.66c0 14.717 8.147 14.197 8.147 14.197h4.863v-6.83s-.263-8.147 8.017-8.147h13.805s7.757.125 7.757-7.497v-12.604s1.178-7.625-14.065-7.625m-7.677 4.407a2.504 2.504 0 0 1 2.505 2.505 2.504 2.504 0 0 1-2.505 2.505 2.5 2.5 0 0 1-2.505-2.505 2.504 2.504 0 0 1 2.505-2.505" style="fill:#00cbff;fill-opacity:1;stroke-width:1.79561" transform="translate(-53.936 -142.14)scale(.55256)"/><path fill="url(#b)" d="M126.548 314.396c14.587 0 13.677-6.326 13.677-6.326l-.018-6.554h-13.92v-1.966h19.45s9.334 1.06 9.334-13.66c0-14.718-8.147-14.195-8.147-14.195h-4.862v6.828s.262 8.147-8.018 8.147H120.24s-7.758-.126-7.758 7.497v12.603s-1.177 7.626 14.065 7.626m7.676-4.406a2.5 2.5 0 0 1-2.505-2.505 2.503 2.503 0 0 1 2.505-2.503 2.5 2.5 0 0 1 2.505 2.503 2.5 2.5 0 0 1-2.505 2.505" style="fill:#ff005f;fill-opacity:1;stroke-width:1.79561" transform="translate(-53.936 -142.14)scale(.55256)"/></svg>