<svg xmlns="http://www.w3.org/2000/svg" width="105" height="131.25" viewBox="0 0 27.781 34.727"><path fill="#1c274c" fill-rule="evenodd" d="M12.052 2h-.104c-1.68 0-3.01 0-4.052.142-1.072.147-1.94.456-2.624 1.152s-.988 1.58-1.132 2.67C4 7.024 4 8.378 4 10.087v3.826c0 1.71 0 3.064.14 4.123.144 1.09.448 1.974 1.132 2.67s1.552 1.005 2.624 1.152C8.937 22 10.268 22 11.948 22h.104c1.68 0 3.01 0 4.052-.142 1.072-.147 1.94-.456 2.624-1.152s.988-1.58 1.132-2.67c.14-1.06.14-2.414.14-4.123v-3.826c0-1.71 0-3.064-.14-4.123-.144-1.09-.448-1.974-1.132-2.67s-1.552-1.005-2.624-1.152C15.063 2 13.732 2 12.052 2m-3.48 16.512a.69.69 0 0 1 .685-.698h5.486c.379 0 .686.312.686.698a.69.69 0 0 1-.686.697H9.257a.69.69 0 0 1-.686-.697" clip-rule="evenodd" style="fill:#00cbff;fill-opacity:1" transform="translate(-6.945 -3.473)scale(1.73633)"/><path fill="url(#a)" d="M51.254 508.426c-3.796 0-3.559 1.646-3.559 1.646l.004 1.705h3.622v.512H46.26s-2.428-.276-2.428 3.554 2.12 3.694 2.12 3.694h1.265v-1.777s-.069-2.12 2.086-2.12h3.592s2.018.033 2.018-1.95v-3.28s.307-1.984-3.66-1.984zm-1.998 1.146a.651.651 0 1 1 0 1.304.65.65 0 0 1-.651-.652c0-.36.291-.652.651-.652z" style="fill:#ff005f;fill-opacity:1;stroke:#fff;stroke-width:1.778;stroke-dasharray:none;stroke-opacity:1" transform="translate(-41.876 -546.315)scale(1.08697)"/><path fill="url(#b)" d="M51.363 523.2c3.795 0 3.558-1.647 3.558-1.647l-.004-1.705h-3.622v-.511h5.061s2.429.275 2.429-3.555-2.12-3.693-2.12-3.693H55.4v1.776s.068 2.12-2.086 2.12h-3.592s-2.019-.033-2.019 1.95v3.28s-.306 1.984 3.66 1.984zm1.997-1.147a.65.65 0 0 1-.652-.652.651.651 0 1 1 .652.652" style="fill:#fff;fill-opacity:1;stroke-width:.467217" transform="translate(-41.876 -546.315)scale(1.08697)"/><path fill="url(#a)" d="M51.255 508.327c-3.796 0-3.559 1.646-3.559 1.646l.005 1.705h3.621v.512h-5.061s-2.428-.276-2.428 3.554 2.12 3.694 2.12 3.694h1.265v-1.777s-.068-2.12 2.086-2.12h3.592s2.019.033 2.019-1.95v-3.28s.306-1.984-3.66-1.984m-1.997 1.146a.651.651 0 1 1 0 1.304.65.65 0 0 1-.652-.652c0-.36.292-.652.652-.652" style="fill:#ff005f;fill-opacity:1;stroke-width:.467217" transform="translate(-41.876 -546.315)scale(1.08697)"/></svg>