<svg xmlns="http://www.w3.org/2000/svg" width="120" height="120" viewBox="0 0 31.75 31.75"><g transform="translate(-40.819 -175.117)scale(1.15477)"><path fill="#1c274c" d="M51.915 151.646c2.31 0 4.14 0 5.572.196 1.473.202 2.666.626 3.607 1.583.94.957 1.358 2.17 1.556 3.67.192 1.457.192 3.319.192 5.669v5.26c0 2.35 0 4.21-.192 5.668-.198 1.499-.616 2.713-1.556 3.67s-2.134 1.381-3.607 1.583c-1.432.196-3.262.196-5.572.196h-.142c-2.31 0-4.139 0-5.57-.196-1.474-.202-2.667-.626-3.608-1.583-.94-.957-1.358-2.171-1.556-3.67-.193-1.457-.192-3.319-.192-5.669v-5.26c0-2.35 0-4.211.192-5.668.198-1.5.616-2.713 1.556-3.67s2.134-1.381 3.607-1.583c1.432-.196 3.262-.196 5.571-.196z" opacity=".5" style="opacity:1;fill:#00cbff;fill-opacity:1;stroke-width:1.37473"/><path fill="#1c274c" d="M49.095 173.986a1.031 1.031 0 0 0 0 2.062h6.874a1.031 1.031 0 0 0 0-2.062z" style="fill:#f9f9f9;fill-opacity:1;stroke-width:1.37473"/><path fill="#1c274c" d="M35.348 168.83c0-1.93 0-2.896.463-3.59.2-.3.458-.557.759-.758.693-.463 1.658-.463 3.59-.463 1.93 0 2.895 0 3.589.463.3.2.558.458.758.759.464.693.464 1.658.464 3.59v5.498c0 1.931 0 2.896-.464 3.59-.2.3-.458.558-.758.758-.694.464-1.66.464-3.59.464s-2.896 0-3.59-.464c-.3-.2-.557-.458-.758-.758-.463-.694-.463-1.659-.463-3.59z" style="fill:#ff005f;fill-opacity:1;stroke-width:1.37473"/><circle cx="40.119" cy="176.569" r=".889" style="opacity:1;fill:#f9f9f9;fill-opacity:1;stroke:#999;stroke-width:0;stroke-linecap:square;stroke-linejoin:round"/></g></svg>