<svg xmlns="http://www.w3.org/2000/svg" width="120" height="96.649" viewBox="0 0 31.75 25.572"><path d="M52.926 650.824a4.42 4.42 0 1 0 4.42 4.42 4.423 4.423 0 0 0-4.42-4.42" style="fill:#ff005f;fill-opacity:1;stroke-width:.36836" transform="matrix(.97939 0 0 .96418 -35.96 -610.461)"/><path d="M43.572 645.899a2.21 2.21 0 1 0 3.134 3.117 8.924 8.924 0 0 1 12.44 0 2.2 2.2 0 0 0 1.568.652 2.21 2.21 0 0 0 1.567-3.769c-5.016-5.05-13.693-5.05-18.709 0" style="fill:#00cbff;fill-opacity:1;stroke-width:.36836" transform="matrix(.97939 0 0 .96418 -35.96 -610.461)"/><path d="M68.497 639.691a21.785 21.785 0 0 0-31.14 0 2.21 2.21 0 1 0 3.142 3.108c6.673-6.75 18.182-6.75 24.855 0a2.21 2.21 0 1 0 3.143-3.108" style="fill:#00cbff;fill-opacity:1;stroke-width:.36836" transform="matrix(.97939 0 0 .96418 -35.96 -610.461)"/></svg>