<?xml version="1.0" encoding="UTF-8" standalone="no"?>
<!-- Created with Inkscape (http://www.inkscape.org/) -->

<svg
   version="1.1"
   width="360"
   height="540"
   id="svg2"
   inkscape:version="0.48.4 r9939"
   sodipodi:docname="English_pattern_playing_cards_deck.svg"
   inkscape:export-filename="D:\Users\Дмитрий\Desktop\яяяяПрочее\cards\Anglo-american_playing_cards_deck.png"
   inkscape:export-xdpi="90"
   inkscape:export-ydpi="90"
   xmlns:inkscape="http://www.inkscape.org/namespaces/inkscape"
   xmlns:sodipodi="http://sodipodi.sourceforge.net/DTD/sodipodi-0.dtd"
   xmlns="http://www.w3.org/2000/svg"
   xmlns:svg="http://www.w3.org/2000/svg"
   xmlns:rdf="http://www.w3.org/1999/02/22-rdf-syntax-ns#"
   xmlns:cc="http://creativecommons.org/ns#"
   xmlns:dc="http://purl.org/dc/elements/1.1/">
  <sodipodi:namedview
     pagecolor="#ffffff"
     bordercolor="#666666"
     borderopacity="1"
     objecttolerance="10"
     gridtolerance="10"
     guidetolerance="10"
     inkscape:pageopacity="0"
     inkscape:pageshadow="2"
     inkscape:window-width="1366"
     inkscape:window-height="741"
     id="namedview7377"
     showgrid="true"
     inkscape:zoom="0.22960784"
     inkscape:cx="2550"
     inkscape:cy="1155"
     inkscape:window-x="-9"
     inkscape:window-y="-9"
     inkscape:window-maximized="1"
     inkscape:current-layer="svg2"
     inkscape:showpageshadow="2"
     inkscape:pagecheckerboard="0"
     inkscape:deskcolor="#d1d1d1">
    <inkscape:grid
       type="xygrid"
       id="grid10354"
       empspacing="5"
       visible="true"
       enabled="true"
       snapvisiblegridlinesonly="true"
       spacingx="390"
       spacingy="570"
       originy="30"
       originx="30" />
  </sodipodi:namedview>
  <metadata
     id="metadata14752">
    <rdf:RDF>
      <cc:Work
         rdf:about="">
        <dc:format>image/svg+xml</dc:format>
        <dc:type
           rdf:resource="http://purl.org/dc/dcmitype/StillImage" />
        <dc:title />
      </cc:Work>
    </rdf:RDF>
  </metadata>
  <defs
     id="defs14750" />
  <g
     transform="translate(0,-512.3622)"
     id="g3078">
    <rect
       rx="29.944447"
       ry="29.944447"
       y="512.86218"
       x="0.5"
       height="539"
       width="359"
       id="rect6472-660"
       style="fill:#ffffff;stroke:#000000;stroke-width:1" />
    <path
       style="fill:#000000;fill-opacity:1;stroke:none"
       id="rect3980-2-1-93-3"
       d="m 20,542.36208 v 5 5 h 5 v -5 h 10 l -10,45 h 5 l 10,-45 v -5 z"
       inkscape:connector-curvature="0" />
    <path
       style="fill:#000000;fill-opacity:1;stroke:none"
       id="rect3980-2-1-93-0-8"
       d="m 340,1022.3622 v -5 -5 h -5 v 5 h -10 l 10,-45.00004 h -5 l -10,45.00004 v 5 z"
       inkscape:connector-curvature="0" />
    <path
       style="fill:#000000;fill-opacity:1;stroke:none"
       d="m 32.5,630.36218 c 1,2 3.5,5 6,5 4.5,0 6.5,-4 6.5,-9 0,-5 -2,-9.5 -6.5,-9.5 -2.5,0 -4,2.5 -5.5,4 -0.5,0.5 -1,0 -0.5,-0.5 1.5,-1.5 4,-5.5 4,-9 0,-4 -2.5,-9 -6.5,-9 -4,0 -6.5,5 -6.5,9 0,3.5 2.5,7.5 4,9 0.5,0.5 0,1 -0.5,0.5 -1.5,-1.5 -3,-4 -5.5,-4 -4.5,0 -6.5,4.5 -6.5,9.5 0,5 2,9 6.5,9 2.5,0 5,-3 6,-5 0.5,-0.5 0.5,0 0.5,0.5 -0.5,4 -0.5,5 -1,8 -0.5,3 -2,8.5 -2,8.5 2.5,-1 7.5,-1 10,0 0,0 -1.5,-5.5 -2,-8.5 -0.5,-3 -0.5,-4 -1,-8 0,-0.5 0,-1 0.5,-0.5 z"
       id="path3037-1-0"
       inkscape:connector-curvature="0"
       sodipodi:nodetypes="csssccsssccsssccsccscc" />
    <path
       style="fill:#000000;fill-opacity:1;stroke:none"
       d="m 332.5,934.36218 c 1,-2 3.5,-5 6,-5 4.5,0 6.5,4 6.5,9 0,5 -2,9.5 -6.5,9.5 -2.5,0 -4,-2.5 -5.5,-4 -0.5,-0.5 -1,0 -0.5,0.5 1.5,1.5 4,5.5 4,9 0,4 -2.5,9 -6.5,9 -4,0 -6.5,-5 -6.5,-9 0,-3.5 2.5,-7.5 4,-9 0.5,-0.5 0,-1 -0.5,-0.5 -1.5,1.5 -3,4 -5.5,4 -4.5,0 -6.5,-4.5 -6.5,-9.5 0,-5 2,-9 6.5,-9 2.5,0 5,3 6,5 0.5,0.5 0.5,0 0.5,-0.5 -0.5,-4 -0.5,-5 -1,-8 -0.5,-3 -2,-8.5 -2,-8.5 2.5,1 7.5,1 10,0 0,0 -1.5,5.5 -2,8.5 -0.5,3 -0.5,4 -1,8 0,0.5 0,1 0.5,0.5 z"
       id="path3037-1-1-1"
       inkscape:connector-curvature="0"
       sodipodi:nodetypes="csssccsssccsssccsccscc" />
    <path
       style="fill:#000000;fill-opacity:1;stroke:none"
       d="m 95,613.36218 c 2,4 7,10 12,10 9,0 13,-8 13,-18 0,-10 -4,-19 -13,-19 -5,0 -8,5 -11,8 -1,1 -2,0 -1,-1 3,-3 8,-11 8,-18 0,-8 -5,-18 -13,-18 -8,0 -13,10 -13,18 0,7 5,15 8,18 1,1 0,2 -1,1 -3,-3 -6,-8 -11,-8 -9,0 -13,9 -13,19 0,10 4,18 13,18 5,0 10,-6 12,-10 1,-1 1,0 1,1 -1,8 -1,10 -2,16 -1,6 -4,17 -4,17 5,-2 15,-2 20,0 0,0 -3,-11 -4,-17 -1,-6 -1,-8 -2,-16 0,-1 0,-2 1,-1 z"
       id="path3037-25"
       inkscape:connector-curvature="0"
       sodipodi:nodetypes="csssccsssccsssccsccscc" />
    <path
       style="fill:#000000;fill-opacity:1;stroke:none"
       d="m 275,613.36218 c 2,4 7,10 12,10 9,0 13,-8 13,-18 0,-10 -4,-19 -13,-19 -5,0 -8,5 -11,8 -1,1 -2,0 -1,-1 3,-3 8,-11 8,-18 0,-8 -5,-18 -13,-18 -8,0 -13,10 -13,18 0,7 5,15 8,18 1,1 0,2 -1,1 -3,-3 -6,-8 -11,-8 -9,0 -13,9 -13,19 0,10 4,18 13,18 5,0 10,-6 12,-10 1,-1 1,0 1,1 -1,8 -1,10 -2,16 -1,6 -4,17 -4,17 5,-2 15,-2 20,0 0,0 -3,-11 -4,-17 -1,-6 -1,-8 -2,-16 0,-1 0,-2 1,-1 z"
       id="path3037-7-094"
       inkscape:connector-curvature="0"
       sodipodi:nodetypes="csssccsssccsssccsccscc" />
    <path
       style="fill:#000000;fill-opacity:1;stroke:none"
       d="m 185,703.36218 c 2,4 7,10 12,10 9,0 13,-8 13,-18 0,-10 -4,-19 -13,-19 -5,0 -8,5 -11,8 -1,1 -2,0 -1,-1 3,-3 8,-11 8,-18 0,-8 -5,-18 -13,-18 -8,0 -13,10 -13,18 0,7 5,15 8,18 1,1 0,2 -1,1 -3,-3 -6,-8 -11,-8 -9,0 -13,9 -13,19 0,10 4,18 13,18 5,0 10,-6 12,-10 1,-1 1,0 1,1 -1,8 -1,10 -2,16 -1,6 -4,17 -4,17 5,-2 15,-2 20,0 0,0 -3,-11 -4,-17 -1,-6 -1,-8 -2,-16 0,-1 0,-2 1,-1 z"
       id="path3037-4-7"
       inkscape:connector-curvature="0"
       sodipodi:nodetypes="csssccsssccsssccsccscc" />
    <path
       style="fill:#000000;fill-opacity:1;stroke:none"
       d="m 95,793.36218 c 2,4 7,10 12,10 9,0 13,-8 13,-18 0,-10 -4,-19 -13,-19 -5,0 -8,5 -11,8 -1,1 -2,0 -1,-1 3,-3 8,-11 8,-18 0,-8 -5,-18 -13,-18 -8,0 -13,10 -13,18 0,7 5,15 8,18 1,1 0,2 -1,1 -3,-3 -6,-8 -11,-8 -9,0 -13,9 -13,19 0,10 4,18 13,18 5,0 10,-6 12,-10 1,-1 1,0 1,1 -1,8 -1,10 -2,16 -1,6 -4,17 -4,17 5,-2 15,-2 20,0 0,0 -3,-11 -4,-17 -1,-6 -1,-8 -2,-16 0,-1 0,-2 1,-1 z"
       id="path3037-0-8"
       inkscape:connector-curvature="0"
       sodipodi:nodetypes="csssccsssccsssccsccscc" />
    <path
       style="fill:#000000;fill-opacity:1;stroke:none"
       d="m 275,793.36218 c 2,4 7,10 12,10 9,0 13,-8 13,-18 0,-10 -4,-19 -13,-19 -5,0 -8,5 -11,8 -1,1 -2,0 -1,-1 3,-3 8,-11 8,-18 0,-8 -5,-18 -13,-18 -8,0 -13,10 -13,18 0,7 5,15 8,18 1,1 0,2 -1,1 -3,-3 -6,-8 -11,-8 -9,0 -13,9 -13,19 0,10 4,18 13,18 5,0 10,-6 12,-10 1,-1 1,0 1,1 -1,8 -1,10 -2,16 -1,6 -4,17 -4,17 5,-2 15,-2 20,0 0,0 -3,-11 -4,-17 -1,-6 -1,-8 -2,-16 0,-1 0,-2 1,-1 z"
       id="path3037-9-3"
       inkscape:connector-curvature="0"
       sodipodi:nodetypes="csssccsssccsssccsccscc" />
    <path
       style="fill:#000000;fill-opacity:1;stroke:none"
       d="m 95,951.3622 c 2,-4 7,-10 12,-10 9,0 13,8 13,18 0,10 -4,19 -13,19 -5,0 -8,-5 -11,-8 -1,-1 -2,0 -1,1 3,3 8,11 8,18 0,8 -5,18 -13,18 -8,0 -13,-10 -13,-18 0,-7 5,-15 8,-18 1,-1 0,-2 -1,-1 -3,3 -6,8 -11,8 -9,0 -13,-9 -13,-19 0,-10 4,-18 13,-18 5,0 10,6 12,10 1,1 1,0 1,-1 -1,-8 -1,-10 -2,-16 -1,-6 -4,-17.00002 -4,-17.00002 5,2 15,2 20,0 0,0 -3,11.00002 -4,17.00002 -1,6 -1,8 -2,16 0,1 0,2 1,1 z"
       id="path3037-48"
       inkscape:connector-curvature="0"
       sodipodi:nodetypes="csssccsssccsssccsccscc" />
    <path
       style="fill:#000000;fill-opacity:1;stroke:none"
       d="m 275,951.3622 c 2,-4 7,-10 12,-10 9,0 13,8 13,18 0,10 -4,19 -13,19 -5,0 -8,-5 -11,-8 -1,-1 -2,0 -1,1 3,3 8,11 8,18 0,8 -5,18 -13,18 -8,0 -13,-10 -13,-18 0,-7 5,-15 8,-18 1,-1 0,-2 -1,-1 -3,3 -6,8 -11,8 -9,0 -13,-9 -13,-19 0,-10 4,-18 13,-18 5,0 10,6 12,10 1,1 1,0 1,-1 -1,-8 -1,-10 -2,-16 -1,-6 -4,-17.00002 -4,-17.00002 5,2 15,2 20,0 0,0 -3,11.00002 -4,17.00002 -1,6 -1,8 -2,16 0,1 0,2 1,1 z"
       id="path3037-8"
       inkscape:connector-curvature="0"
       sodipodi:nodetypes="csssccsssccsssccsccscc" />
  </g>
</svg>
