<?xml version="1.0" encoding="UTF-8" standalone="no"?>
<!-- Created with Inkscape (http://www.inkscape.org/) -->

<svg
   width="1.1811024in"
   height="1.1811014in"
   viewBox="0 0 30.000001 29.999977"
   version="1.1"
   id="svg1"
   xml:space="preserve"
   xmlns="http://www.w3.org/2000/svg"
   xmlns:svg="http://www.w3.org/2000/svg"><defs
     id="defs1" /><g
     id="layer1"
     transform="translate(-83.207762,-556.02399)"><rect
       style="fill:none;fill-opacity:1;fill-rule:nonzero;stroke:none;stroke-width:0.817852;stroke-linecap:square;stroke-linejoin:round;stroke-dasharray:none;stroke-opacity:1"
       id="rect22-4"
       width="700.58136"
       height="30.549423"
       x="-208.49167"
       y="515.67291" /><text
       xml:space="preserve"
       style="font-style:normal;font-variant:normal;font-weight:normal;font-stretch:normal;font-size:19.1859px;line-height:1.3;font-family:Helvetica;-inkscape-font-specification:'Helvetica, Normal';font-variant-ligatures:normal;font-variant-caps:normal;font-variant-numeric:normal;font-variant-east-asian:normal;text-align:center;white-space:pre;shape-inside:url(#rect22-4);display:inline;fill:#1a1a1a;fill-opacity:1;fill-rule:nonzero;stroke:none;stroke-width:0.266331;stroke-linecap:square;stroke-linejoin:round;stroke-dasharray:none;stroke-opacity:1"
       x="587.22534"
       y="153.94383"
       id="text8-2-4"
       transform="matrix(0.82743077,0,0,0.82743077,187.51816,-327.17061)"
       dx="0 0 0 0 0 0 0 0 0 0 0 0 0 0 0 0 0 0 0 0 0 0 0 0 0 0 0 0 0 0 0 0 0 0 0 0 0 0 0 0 0 0 0 0 0 0 0 0 0 0 0 0 0 0 0 0 0 0 0 0 0 0 0 0"><tspan
         x="-142.92161"
         y="534.19372"
         id="tspan1">Browser-based workspace for building cross-platform Python apps. </tspan></text><rect
       style="fill:none;fill-opacity:1;fill-rule:nonzero;stroke:none;stroke-width:0.817852;stroke-linecap:square;stroke-linejoin:round;stroke-dasharray:none;stroke-opacity:1"
       id="rect22-4-6"
       width="961.01294"
       height="38.245068"
       x="-171.24258"
       y="723.36621" /><text
       xml:space="preserve"
       style="font-style:normal;font-variant:normal;font-weight:normal;font-stretch:normal;font-size:20.7844px;line-height:1.3;font-family:Helvetica;-inkscape-font-specification:'Helvetica, Normal';font-variant-ligatures:normal;font-variant-caps:normal;font-variant-numeric:normal;font-variant-east-asian:normal;text-align:center;white-space:pre;shape-inside:url(#rect22-4-6);display:inline;fill:#4d4d4d;fill-opacity:1;fill-rule:nonzero;stroke:none;stroke-width:0.266331;stroke-linecap:square;stroke-linejoin:round;stroke-dasharray:none;stroke-opacity:1"
       x="587.22534"
       y="153.94383"
       id="text8-2-4-1"
       transform="matrix(0.59571023,0,0,0.59571023,112.98953,-287.41498)"><tspan
         x="10.03122"
         y="743.43009"
         id="tspan2">No downloads. No setup. Just write, run, and share Python apps.</tspan></text><rect
       style="fill:none;fill-opacity:1;fill-rule:nonzero;stroke:none;stroke-width:0.817852;stroke-linecap:square;stroke-linejoin:round;stroke-dasharray:none;stroke-opacity:1"
       id="rect22-4-6-5"
       width="961.01294"
       height="38.245068"
       x="-261.9375"
       y="421.33533" /><text
       xml:space="preserve"
       style="font-style:normal;font-variant:normal;font-weight:normal;font-stretch:normal;font-size:17.808px;line-height:1.3;font-family:Helvetica;-inkscape-font-specification:'Helvetica, Normal';font-variant-ligatures:normal;font-variant-caps:normal;font-variant-numeric:normal;font-variant-east-asian:normal;text-align:center;white-space:pre;shape-inside:url(#rect22-4-6-5);display:inline;fill:#1a1a1a;fill-opacity:1;fill-rule:nonzero;stroke:none;stroke-width:0.266331;stroke-linecap:square;stroke-linejoin:round;stroke-dasharray:none;stroke-opacity:1"
       x="587.22534"
       y="153.94383"
       id="text8-2-4-1-2"
       transform="matrix(0.69335364,0,0,0.69335364,256.16145,533.09794)"><tspan
         x="162.63674"
         y="438.52576"
         id="tspan3">https://flet.app</tspan></text><rect
       style="fill:none;fill-opacity:1;fill-rule:nonzero;stroke:none;stroke-width:0.817852;stroke-linecap:square;stroke-linejoin:round;stroke-dasharray:none;stroke-opacity:1"
       id="rect22-4-6-5-9"
       width="961.01294"
       height="38.245068"
       x="24.606251"
       y="583.67084" /><text
       xml:space="preserve"
       style="font-style:normal;font-variant:normal;font-weight:normal;font-stretch:normal;font-size:24.5427px;line-height:1.3;font-family:Helvetica;-inkscape-font-specification:'Helvetica, Normal';font-variant-ligatures:normal;font-variant-caps:normal;font-variant-numeric:normal;font-variant-east-asian:normal;text-align:center;white-space:pre;shape-inside:url(#rect22-4-6-5-9);display:inline;fill:#1a1a1a;fill-opacity:1;fill-rule:nonzero;stroke:none;stroke-width:0.266331;stroke-linecap:square;stroke-linejoin:round;stroke-dasharray:none;stroke-opacity:1"
       x="587.22534"
       y="153.94383"
       id="text8-2-4-1-2-6"
       transform="matrix(0.50309193,0,0,0.50309193,-68.278289,532.00174)"><tspan
         x="425.77395"
         y="607.36066"
         id="tspan4">Try Flet Studio</tspan></text><g
       id="g682"
       transform="matrix(0.66666667,0,0,0.66666667,45.872311,188.84119)"><path
         d="m 85.604507,556.64237 -1.050066,1.16679 z m 8.285835,7.45719 -1.050066,1.16681 z m 4.818753,5.31115 -1.433926,0.63858 v 0 z m -38.684037,22.34149 1.10999,-1.10993 v 0 z m 36.956042,0 -1.109927,-1.10993 v 0 z m -14.291956,0.88242 h -8.372067 v 3.13952 h 8.372067 z M 59.142705,577.46025 v -8.37207 H 56.00318 v 8.37207 z m 38.720811,-0.91486 v 0.91486 h 3.139524 v -0.91486 z m -13.309075,-18.73623 8.285835,7.45721 2.100133,-2.33361 -8.285626,-7.45719 z m 16.448599,18.73623 c 0,-3.53385 0.0316,-5.77129 -0.86002,-7.77332 l -2.867851,1.27722 c 0.556742,1.25016 0.588347,2.68492 0.588347,6.4961 z m -8.162764,-11.27902 c 2.832689,2.54946 3.878151,3.53295 4.434893,4.78292 l 2.867851,-1.27722 c -0.891625,-2.0021 -2.575875,-3.47533 -5.202611,-5.83931 z M 74.379449,553.91381 c 3.310734,0 4.560056,0.0242 5.673541,0.45152 l 1.124787,-2.93112 c -1.782832,-0.68417 -3.725361,-0.65993 -6.798328,-0.65993 z m 12.275334,1.56176 c -2.273016,-2.04571 -3.694175,-3.35728 -5.477006,-4.04136 l -1.124787,2.93112 c 1.113903,0.4274 2.053249,1.24039 4.501451,3.44383 z m -12.337706,37.15905 c -3.991006,0 -6.826353,-0.003 -8.977263,-0.29261 -2.105763,-0.28297 -3.31898,-0.81397 -4.204766,-1.69974 l -2.219979,2.22007 c 1.566351,1.5662 3.552498,2.26129 6.006414,2.59136 2.408727,0.32379 5.493332,0.32044 9.395594,0.32044 z M 56.00318,577.46025 c 0,3.90222 -0.0033,6.9869 0.320504,9.39555 0.329922,2.45385 1.025055,4.44012 2.591385,6.00654 l 2.219979,-2.22007 c -0.885786,-0.88576 -1.416721,-2.09908 -1.699823,-4.20466 -0.289192,-2.15099 -0.29252,-4.9864 -0.29252,-8.97736 z m 26.685964,18.31389 c 3.902221,0 6.986909,0.003 9.395553,-0.32044 2.453853,-0.33007 4.440125,-1.02516 6.006539,-2.59136 l -2.220063,-2.22007 c -0.885764,0.88577 -2.099086,1.41677 -4.204661,1.69974 -2.150994,0.28926 -4.986403,0.29261 -8.977368,0.29261 z m 15.174372,-18.31389 c 0,3.99096 -0.0033,6.82637 -0.292604,8.97736 -0.282976,2.10558 -0.813974,3.3189 -1.699739,4.20466 l 2.220063,2.22007 c 1.566205,-1.56642 2.261294,-3.55269 2.591364,-6.00654 0.32379,-2.40865 0.32044,-5.49333 0.32044,-9.39555 z m -38.720811,-8.37207 c 0,-3.99101 0.0033,-6.82636 0.29252,-8.97727 0.283102,-2.10576 0.814037,-3.31898 1.699823,-4.20476 l -2.219979,-2.21998 c -1.56633,1.56635 -2.261463,3.5525 -2.591385,6.00641 -0.323832,2.40873 -0.320504,5.49334 -0.320504,9.3956 z m 15.236744,-18.3139 c -3.923193,0 -7.022867,-0.003 -9.441452,0.32038 -2.462539,0.32959 -4.455363,1.02397 -6.022928,2.59151 l 2.219979,2.21998 c 0.884572,-0.88455 2.101514,-1.41624 4.219417,-1.6997 2.161877,-0.28934 5.01332,-0.29264 9.024984,-0.29264 z"
         fill="#1c274c"
         id="path1-9"
         style="fill:#00cbff;fill-opacity:1;stroke-width:2.09302" /><path
         opacity="0.5"
         d="m 80.596127,553.39055 v 5.23254 c 0,4.93329 0,7.39993 1.532507,8.93252 1.532717,1.53257 3.999337,1.53257 8.932577,1.53257 h 8.372068"
         stroke="#1c274c"
         stroke-width="3.13953"
         id="path2-3"
         style="fill:none;stroke:#00cbff;stroke-opacity:1" /><path
         opacity="0.5"
         d="m 65.94501,582.69279 2.790682,3.13952 5.581385,-6.27905"
         stroke="#1c274c"
         stroke-width="3.13953"
         stroke-linecap="round"
         stroke-linejoin="round"
         id="path3-11"
         style="opacity:1;fill:none;stroke:#ff005f;stroke-opacity:1" /></g><rect
       style="fill:none;fill-opacity:1;fill-rule:nonzero;stroke:none;stroke-width:0.0553807;stroke-linecap:square;stroke-linejoin:round;stroke-dasharray:none;stroke-opacity:1"
       id="rect7-34-1-5"
       width="126.67599"
       height="25.887161"
       x="97.686363"
       y="563.03333" /><text
       xml:space="preserve"
       style="font-style:normal;font-variant:normal;font-weight:normal;font-stretch:normal;font-size:9.67636px;font-family:Helvetica;-inkscape-font-specification:'Helvetica, Normal';font-variant-ligatures:normal;font-variant-caps:normal;font-variant-numeric:normal;font-variant-east-asian:normal;white-space:pre;shape-inside:url(#rect7-34-1-5);display:inline;fill:#666666;fill-opacity:1;fill-rule:nonzero;stroke:none;stroke-width:0.0178742;stroke-linecap:square;stroke-linejoin:round;stroke-dasharray:none;stroke-opacity:1"
       x="108.16931"
       y="290.97919"
       id="text7-2-5-4"
       transform="matrix(1.0208155,0,0,1.0208155,29.460133,2.0848097)"><tspan
         x="97.685547"
         y="572.13176"
         id="tspan5">Manage project files directly </tspan><tspan
         x="97.685547"
         y="584.22721"
         id="tspan6">in the browser.</tspan></text><rect
       style="fill:none;fill-opacity:1;fill-rule:nonzero;stroke:none;stroke-width:0.0553807;stroke-linecap:square;stroke-linejoin:round;stroke-dasharray:none;stroke-opacity:1"
       id="rect7-34-1-5-6"
       width="126.67599"
       height="25.887161"
       x="108.21458"
       y="586.31665" /><text
       xml:space="preserve"
       style="font-style:normal;font-variant:normal;font-weight:normal;font-stretch:normal;font-size:9.67636px;font-family:Helvetica;-inkscape-font-specification:'Helvetica, Normal';font-variant-ligatures:normal;font-variant-caps:normal;font-variant-numeric:normal;font-variant-east-asian:normal;white-space:pre;shape-inside:url(#rect7-34-1-5-6);display:inline;fill:#666666;fill-opacity:1;fill-rule:nonzero;stroke:none;stroke-width:0.0178742;stroke-linecap:square;stroke-linejoin:round;stroke-dasharray:none;stroke-opacity:1"
       x="108.16931"
       y="290.97919"
       id="text7-2-5-4-5"
       transform="matrix(1.0208155,0,0,1.0208155,19.715983,52.929322)"><tspan
         x="108.21484"
         y="595.41496"
         id="tspan7">500+ examples, templates </tspan><tspan
         x="108.21484"
         y="607.51042"
         id="tspan8">and apps to start from.</tspan></text><rect
       style="fill:none;fill-opacity:1;fill-rule:nonzero;stroke:none;stroke-width:0.0553807;stroke-linecap:square;stroke-linejoin:round;stroke-dasharray:none;stroke-opacity:1"
       id="rect7-34-1-5-6-0"
       width="143.26402"
       height="26.923914"
       x="100.27708"
       y="650.34583" /><text
       xml:space="preserve"
       style="font-style:normal;font-variant:normal;font-weight:normal;font-stretch:normal;font-size:9.67636px;font-family:Helvetica;-inkscape-font-specification:'Helvetica, Normal';font-variant-ligatures:normal;font-variant-caps:normal;font-variant-numeric:normal;font-variant-east-asian:normal;white-space:pre;shape-inside:url(#rect7-34-1-5-6-0);display:inline;fill:#666666;fill-opacity:1;fill-rule:nonzero;stroke:none;stroke-width:0.0178742;stroke-linecap:square;stroke-linejoin:round;stroke-dasharray:none;stroke-opacity:1"
       x="108.16931"
       y="290.97919"
       id="text7-2-5-4-5-4"
       transform="matrix(1.0208155,0,0,1.0208155,26.760372,57.946522)"><tspan
         x="100.27734"
         y="659.44426"
         id="tspan9">Collaborate and remix projects </tspan><tspan
         x="100.27734"
         y="671.53971"
         id="tspan10">effortlessly.</tspan></text><rect
       style="fill:none;fill-opacity:1;fill-rule:nonzero;stroke:none;stroke-width:0.0553807;stroke-linecap:square;stroke-linejoin:round;stroke-dasharray:none;stroke-opacity:1"
       id="rect7-34-1-5-6-2"
       width="126.67599"
       height="25.887161"
       x="338.40207"
       y="551.92084" /><text
       xml:space="preserve"
       style="font-style:normal;font-variant:normal;font-weight:normal;font-stretch:normal;font-size:9.67636px;font-family:Helvetica;-inkscape-font-specification:'Helvetica, Normal';font-variant-ligatures:normal;font-variant-caps:normal;font-variant-numeric:normal;font-variant-east-asian:normal;white-space:pre;shape-inside:url(#rect7-34-1-5-6-2);display:inline;fill:#666666;fill-opacity:1;fill-rule:nonzero;stroke:none;stroke-width:0.0178742;stroke-linecap:square;stroke-linejoin:round;stroke-dasharray:none;stroke-opacity:1"
       x="108.16931"
       y="290.97919"
       id="text7-2-5-4-5-3"
       transform="matrix(1.0208155,0,0,1.0208155,51.437007,12.899456)"><tspan
         x="338.40234"
         y="561.01847"
         id="tspan11">Restore previous versions </tspan><tspan
         x="338.40234"
         y="573.11393"
         id="tspan12">anytime.</tspan></text><rect
       style="fill:none;fill-opacity:1;fill-rule:nonzero;stroke:none;stroke-width:0.0553807;stroke-linecap:square;stroke-linejoin:round;stroke-dasharray:none;stroke-opacity:1"
       id="rect7-34-1-5-6-26"
       width="126.67599"
       height="25.887161"
       x="385.49786"
       y="657.75415" /><text
       xml:space="preserve"
       style="font-style:normal;font-variant:normal;font-weight:normal;font-stretch:normal;font-size:9.67636px;font-family:Helvetica;-inkscape-font-specification:'Helvetica, Normal';font-variant-ligatures:normal;font-variant-caps:normal;font-variant-numeric:normal;font-variant-east-asian:normal;white-space:pre;shape-inside:url(#rect7-34-1-5-6-26);display:inline;fill:#666666;fill-opacity:1;fill-rule:nonzero;stroke:none;stroke-width:0.0178742;stroke-linecap:square;stroke-linejoin:round;stroke-dasharray:none;stroke-opacity:1"
       x="108.16931"
       y="290.97919"
       id="text7-2-5-4-5-30"
       transform="matrix(1.0208155,0,0,1.0208155,2.2254234,-21.05352)"><tspan
         x="385.49805"
         y="666.85246"
         id="tspan13">Share apps instantly with a </tspan><tspan
         x="385.49805"
         y="678.94792"
         id="tspan14">public link.</tspan></text><rect
       style="fill:none;fill-opacity:1;fill-rule:nonzero;stroke:none;stroke-width:0.0553807;stroke-linecap:square;stroke-linejoin:round;stroke-dasharray:none;stroke-opacity:1"
       id="rect7-34-1-5-6-26-9"
       width="126.67599"
       height="25.887161"
       x="391.26099"
       y="733.21832" /><text
       xml:space="preserve"
       style="font-style:normal;font-variant:normal;font-weight:normal;font-stretch:normal;font-size:9.67636px;font-family:Helvetica;-inkscape-font-specification:'Helvetica, Normal';font-variant-ligatures:normal;font-variant-caps:normal;font-variant-numeric:normal;font-variant-east-asian:normal;white-space:pre;shape-inside:url(#rect7-34-1-5-6-26-9);display:inline;fill:#666666;fill-opacity:1;fill-rule:nonzero;stroke:none;stroke-width:0.0178742;stroke-linecap:square;stroke-linejoin:round;stroke-dasharray:none;stroke-opacity:1"
       x="108.16931"
       y="290.97919"
       id="text7-2-5-4-5-30-1"
       transform="matrix(1.0208155,0,0,1.0208155,-3.6721864,-27.381673)"><tspan
         x="391.26172"
         y="742.3173"
         id="tspan15">Coming soon: cloud builds &amp; </tspan><tspan
         x="391.26172"
         y="754.41276"
         id="tspan16">publishing.</tspan></text></g></svg>
