<?xml version="1.0" encoding="UTF-8" standalone="no"?>
<!-- Created with Inkscape (http://www.inkscape.org/) -->

<svg
   width="1.1811024in"
   height="1.1811041in"
   viewBox="0 0 30.000001 30.000043"
   version="1.1"
   id="svg1"
   xml:space="preserve"
   xmlns="http://www.w3.org/2000/svg"
   xmlns:svg="http://www.w3.org/2000/svg"><defs
     id="defs1" /><g
     id="layer1"
     transform="translate(-83.208075,-630.68707)"><rect
       style="fill:none;fill-opacity:1;fill-rule:nonzero;stroke:none;stroke-width:0.817852;stroke-linecap:square;stroke-linejoin:round;stroke-dasharray:none;stroke-opacity:1"
       id="rect22-4"
       width="700.58136"
       height="30.549423"
       x="-208.49167"
       y="515.67291" /><text
       xml:space="preserve"
       style="font-style:normal;font-variant:normal;font-weight:normal;font-stretch:normal;font-size:19.1859px;line-height:1.3;font-family:Helvetica;-inkscape-font-specification:'Helvetica, Normal';font-variant-ligatures:normal;font-variant-caps:normal;font-variant-numeric:normal;font-variant-east-asian:normal;text-align:center;white-space:pre;shape-inside:url(#rect22-4);display:inline;fill:#1a1a1a;fill-opacity:1;fill-rule:nonzero;stroke:none;stroke-width:0.266331;stroke-linecap:square;stroke-linejoin:round;stroke-dasharray:none;stroke-opacity:1"
       x="587.22534"
       y="153.94383"
       id="text8-2-4"
       transform="matrix(0.82743077,0,0,0.82743077,187.51816,-327.17061)"
       dx="0 0 0 0 0 0 0 0 0 0 0 0 0 0 0 0 0 0 0 0 0 0 0 0 0 0 0 0 0 0 0 0 0 0 0 0 0 0 0 0 0 0 0 0 0 0 0 0 0 0 0 0 0 0 0 0 0 0 0 0 0 0 0 0"><tspan
         x="-142.92161"
         y="534.19372"
         id="tspan1">Browser-based workspace for building cross-platform Python apps. </tspan></text><rect
       style="fill:none;fill-opacity:1;fill-rule:nonzero;stroke:none;stroke-width:0.817852;stroke-linecap:square;stroke-linejoin:round;stroke-dasharray:none;stroke-opacity:1"
       id="rect22-4-6"
       width="961.01294"
       height="38.245068"
       x="-171.24258"
       y="723.36621" /><text
       xml:space="preserve"
       style="font-style:normal;font-variant:normal;font-weight:normal;font-stretch:normal;font-size:20.7844px;line-height:1.3;font-family:Helvetica;-inkscape-font-specification:'Helvetica, Normal';font-variant-ligatures:normal;font-variant-caps:normal;font-variant-numeric:normal;font-variant-east-asian:normal;text-align:center;white-space:pre;shape-inside:url(#rect22-4-6);display:inline;fill:#4d4d4d;fill-opacity:1;fill-rule:nonzero;stroke:none;stroke-width:0.266331;stroke-linecap:square;stroke-linejoin:round;stroke-dasharray:none;stroke-opacity:1"
       x="587.22534"
       y="153.94383"
       id="text8-2-4-1"
       transform="matrix(0.59571023,0,0,0.59571023,112.98953,-287.41498)"><tspan
         x="10.03122"
         y="743.43009"
         id="tspan2">No downloads. No setup. Just write, run, and share Python apps.</tspan></text><rect
       style="fill:none;fill-opacity:1;fill-rule:nonzero;stroke:none;stroke-width:0.817852;stroke-linecap:square;stroke-linejoin:round;stroke-dasharray:none;stroke-opacity:1"
       id="rect22-4-6-5"
       width="961.01294"
       height="38.245068"
       x="-261.9375"
       y="421.33533" /><text
       xml:space="preserve"
       style="font-style:normal;font-variant:normal;font-weight:normal;font-stretch:normal;font-size:17.808px;line-height:1.3;font-family:Helvetica;-inkscape-font-specification:'Helvetica, Normal';font-variant-ligatures:normal;font-variant-caps:normal;font-variant-numeric:normal;font-variant-east-asian:normal;text-align:center;white-space:pre;shape-inside:url(#rect22-4-6-5);display:inline;fill:#1a1a1a;fill-opacity:1;fill-rule:nonzero;stroke:none;stroke-width:0.266331;stroke-linecap:square;stroke-linejoin:round;stroke-dasharray:none;stroke-opacity:1"
       x="587.22534"
       y="153.94383"
       id="text8-2-4-1-2"
       transform="matrix(0.69335364,0,0,0.69335364,256.16145,533.09794)"><tspan
         x="162.63674"
         y="438.52576"
         id="tspan3">https://flet.app</tspan></text><rect
       style="fill:none;fill-opacity:1;fill-rule:nonzero;stroke:none;stroke-width:0.817852;stroke-linecap:square;stroke-linejoin:round;stroke-dasharray:none;stroke-opacity:1"
       id="rect22-4-6-5-9"
       width="961.01294"
       height="38.245068"
       x="24.606251"
       y="583.67084" /><text
       xml:space="preserve"
       style="font-style:normal;font-variant:normal;font-weight:normal;font-stretch:normal;font-size:24.5427px;line-height:1.3;font-family:Helvetica;-inkscape-font-specification:'Helvetica, Normal';font-variant-ligatures:normal;font-variant-caps:normal;font-variant-numeric:normal;font-variant-east-asian:normal;text-align:center;white-space:pre;shape-inside:url(#rect22-4-6-5-9);display:inline;fill:#1a1a1a;fill-opacity:1;fill-rule:nonzero;stroke:none;stroke-width:0.266331;stroke-linecap:square;stroke-linejoin:round;stroke-dasharray:none;stroke-opacity:1"
       x="587.22534"
       y="153.94383"
       id="text8-2-4-1-2-6"
       transform="matrix(0.50309193,0,0,0.50309193,-68.278289,532.00174)"><tspan
         x="425.77395"
         y="607.36066"
         id="tspan4">Try Flet Studio</tspan></text><g
       id="g683"
       transform="matrix(0.66666717,0,0,0.66666717,46.57793,206.35385)"><path
         d="m 90.003283,650.62732 c 0,2.31189 -1.874093,4.18604 -4.186047,4.18604 -2.311953,0 -4.186046,-1.87415 -4.186046,-4.18604 0,-2.3119 1.874093,-4.18605 4.186046,-4.18605 2.311954,0 4.186047,1.87415 4.186047,4.18605 z"
         fill="#1c274c"
         id="path1-0"
         style="fill:#00cbff;fill-opacity:1;stroke-width:2.09302" /><path
         fill-rule="evenodd"
         clip-rule="evenodd"
         d="m 77.325004,636.49941 h 0.240279 c 4.831535,-2e-5 8.617814,-4e-5 11.572116,0.39715 3.023791,0.40655 5.410046,1.25494 7.282883,3.12779 1.872838,1.87286 2.72114,4.25895 3.127814,7.28282 0.397047,2.95426 0.397047,6.74063 0.397047,11.5721 v 0.18481 c 0,3.99517 0,7.26572 -0.217047,9.92847 -0.217883,2.67614 -0.664744,4.91211 -1.66479,6.76925 -0.44121,0.81921 -0.983093,1.55282 -1.643024,2.21275 -1.872837,1.87283 -4.259092,2.72114 -7.282883,3.12781 -2.954302,0.39705 -6.740581,0.39705 -11.572116,0.39705 h -0.240279 c -4.831472,0 -8.617835,0 -11.572095,-0.39705 -3.023875,-0.40667 -5.409963,-1.25498 -7.282821,-3.12781 -1.660353,-1.6604 -2.517781,-3.72705 -2.973746,-6.29058 -0.447907,-2.51812 -0.529849,-5.65138 -0.546865,-9.54189 -0.0043,-0.98958 -0.0043,-2.0363 -0.0043,-3.14058 v -0.12223 c -2.1e-5,-4.83147 -4.2e-5,-8.61784 0.397151,-11.5721 0.406549,-3.02387 1.254935,-5.40996 3.127793,-7.28282 1.872858,-1.87285 4.258946,-2.72124 7.282821,-3.12779 2.95426,-0.39719 6.740623,-0.39717 11.572095,-0.39715 z m -11.153763,3.50868 c -2.675741,0.35975 -4.288876,1.04394 -5.481167,2.23625 -1.192312,1.19229 -1.8765,2.80542 -2.236249,5.48117 -0.365818,2.72088 -0.369146,6.29623 -0.369146,11.2739 0,1.10658 0,2.14681 0.0043,3.12886 0.01716,3.92253 0.10484,6.79332 0.498391,9.00607 0.385514,2.16732 1.041426,3.55877 2.102714,4.62014 1.192291,1.19239 2.805426,1.8766 5.481167,2.23618 2.720889,0.36586 6.296233,0.36921 11.273902,0.36921 4.977628,0 8.55293,-0.003 11.273861,-0.36921 2.67572,-0.35958 4.288813,-1.04379 5.481209,-2.23618 0.439325,-0.43933 0.799535,-0.92533 1.098837,-1.48103 0.694256,-1.2893 1.094442,-3.01353 1.299977,-5.53583 0.205325,-2.52105 0.206581,-5.6654 0.206581,-9.73821 0,-4.97767 -0.0033,-8.55302 -0.369209,-11.2739 -0.359582,-2.67575 -1.043791,-4.28888 -2.236186,-5.48117 -1.192396,-1.19231 -2.805489,-1.8765 -5.481209,-2.23625 -2.720931,-0.36582 -6.296233,-0.36915 -11.273861,-0.36915 -4.977669,0 -8.553013,0.003 -11.273902,0.36915 z"
         fill="#1c274c"
         id="path2-91"
         style="fill:#00cbff;fill-opacity:1;stroke-width:2.09302" /><path
         opacity="0.4"
         d="m 95.459585,673.95678 -5.924093,-5.33156 c -2.175698,-1.95823 -5.415907,-2.1533 -7.810953,-0.47009 l -0.62414,0.43849 c -1.664163,1.16979 -3.928395,0.97367 -5.36693,-0.46486 l -8.9784,-8.97844 c -1.792067,-1.79205 -4.666667,-1.8877 -6.573976,-0.21893 l -2.095389,1.83348 c 5.86e-4,0.46675 0.0017,0.92093 0.0036,1.3634 0.01716,3.92253 0.10484,6.79332 0.498391,9.00607 0.385514,2.16732 1.041405,3.55877 2.102693,4.62014 1.192312,1.19239 2.805447,1.8766 5.481167,2.23618 2.720889,0.36586 6.296233,0.36921 11.273819,0.36921 4.977837,0 8.553139,-0.003 11.274069,-0.36921 2.675721,-0.35958 4.288814,-1.04379 5.481209,-2.23618 0.439326,-0.43933 0.799326,-0.92533 1.098628,-1.48103 0.05546,-0.10276 0.108837,-0.20825 0.160326,-0.31667 z"
         fill="#1c274c"
         id="path3-9"
         style="opacity:1;fill:#ff005f;fill-opacity:1;stroke-width:2.09302" /></g><rect
       style="fill:none;fill-opacity:1;fill-rule:nonzero;stroke:none;stroke-width:0.0553807;stroke-linecap:square;stroke-linejoin:round;stroke-dasharray:none;stroke-opacity:1"
       id="rect7-34-1-5"
       width="126.67599"
       height="25.887161"
       x="97.686363"
       y="563.03333" /><text
       xml:space="preserve"
       style="font-style:normal;font-variant:normal;font-weight:normal;font-stretch:normal;font-size:9.67636px;font-family:Helvetica;-inkscape-font-specification:'Helvetica, Normal';font-variant-ligatures:normal;font-variant-caps:normal;font-variant-numeric:normal;font-variant-east-asian:normal;white-space:pre;shape-inside:url(#rect7-34-1-5);display:inline;fill:#666666;fill-opacity:1;fill-rule:nonzero;stroke:none;stroke-width:0.0178742;stroke-linecap:square;stroke-linejoin:round;stroke-dasharray:none;stroke-opacity:1"
       x="108.16931"
       y="290.97919"
       id="text7-2-5-4"
       transform="matrix(1.0208155,0,0,1.0208155,29.460133,2.0848097)"><tspan
         x="97.685547"
         y="572.13176"
         id="tspan5">Manage project files directly </tspan><tspan
         x="97.685547"
         y="584.22721"
         id="tspan6">in the browser.</tspan></text><rect
       style="fill:none;fill-opacity:1;fill-rule:nonzero;stroke:none;stroke-width:0.0553807;stroke-linecap:square;stroke-linejoin:round;stroke-dasharray:none;stroke-opacity:1"
       id="rect7-34-1-5-6"
       width="126.67599"
       height="25.887161"
       x="108.21458"
       y="586.31665" /><text
       xml:space="preserve"
       style="font-style:normal;font-variant:normal;font-weight:normal;font-stretch:normal;font-size:9.67636px;font-family:Helvetica;-inkscape-font-specification:'Helvetica, Normal';font-variant-ligatures:normal;font-variant-caps:normal;font-variant-numeric:normal;font-variant-east-asian:normal;white-space:pre;shape-inside:url(#rect7-34-1-5-6);display:inline;fill:#666666;fill-opacity:1;fill-rule:nonzero;stroke:none;stroke-width:0.0178742;stroke-linecap:square;stroke-linejoin:round;stroke-dasharray:none;stroke-opacity:1"
       x="108.16931"
       y="290.97919"
       id="text7-2-5-4-5"
       transform="matrix(1.0208155,0,0,1.0208155,19.715983,52.929322)"><tspan
         x="108.21484"
         y="595.41496"
         id="tspan7">500+ examples, templates </tspan><tspan
         x="108.21484"
         y="607.51042"
         id="tspan8">and apps to start from.</tspan></text><rect
       style="fill:none;fill-opacity:1;fill-rule:nonzero;stroke:none;stroke-width:0.0553807;stroke-linecap:square;stroke-linejoin:round;stroke-dasharray:none;stroke-opacity:1"
       id="rect7-34-1-5-6-0"
       width="143.26402"
       height="26.923914"
       x="100.27708"
       y="650.34583" /><text
       xml:space="preserve"
       style="font-style:normal;font-variant:normal;font-weight:normal;font-stretch:normal;font-size:9.67636px;font-family:Helvetica;-inkscape-font-specification:'Helvetica, Normal';font-variant-ligatures:normal;font-variant-caps:normal;font-variant-numeric:normal;font-variant-east-asian:normal;white-space:pre;shape-inside:url(#rect7-34-1-5-6-0);display:inline;fill:#666666;fill-opacity:1;fill-rule:nonzero;stroke:none;stroke-width:0.0178742;stroke-linecap:square;stroke-linejoin:round;stroke-dasharray:none;stroke-opacity:1"
       x="108.16931"
       y="290.97919"
       id="text7-2-5-4-5-4"
       transform="matrix(1.0208155,0,0,1.0208155,26.760372,57.946522)"><tspan
         x="100.27734"
         y="659.44426"
         id="tspan9">Collaborate and remix projects </tspan><tspan
         x="100.27734"
         y="671.53971"
         id="tspan10">effortlessly.</tspan></text><rect
       style="fill:none;fill-opacity:1;fill-rule:nonzero;stroke:none;stroke-width:0.0553807;stroke-linecap:square;stroke-linejoin:round;stroke-dasharray:none;stroke-opacity:1"
       id="rect7-34-1-5-6-2"
       width="126.67599"
       height="25.887161"
       x="338.40207"
       y="551.92084" /><text
       xml:space="preserve"
       style="font-style:normal;font-variant:normal;font-weight:normal;font-stretch:normal;font-size:9.67636px;font-family:Helvetica;-inkscape-font-specification:'Helvetica, Normal';font-variant-ligatures:normal;font-variant-caps:normal;font-variant-numeric:normal;font-variant-east-asian:normal;white-space:pre;shape-inside:url(#rect7-34-1-5-6-2);display:inline;fill:#666666;fill-opacity:1;fill-rule:nonzero;stroke:none;stroke-width:0.0178742;stroke-linecap:square;stroke-linejoin:round;stroke-dasharray:none;stroke-opacity:1"
       x="108.16931"
       y="290.97919"
       id="text7-2-5-4-5-3"
       transform="matrix(1.0208155,0,0,1.0208155,51.437007,12.899456)"><tspan
         x="338.40234"
         y="561.01847"
         id="tspan11">Restore previous versions </tspan><tspan
         x="338.40234"
         y="573.11393"
         id="tspan12">anytime.</tspan></text><rect
       style="fill:none;fill-opacity:1;fill-rule:nonzero;stroke:none;stroke-width:0.0553807;stroke-linecap:square;stroke-linejoin:round;stroke-dasharray:none;stroke-opacity:1"
       id="rect7-34-1-5-6-26"
       width="126.67599"
       height="25.887161"
       x="385.49786"
       y="657.75415" /><text
       xml:space="preserve"
       style="font-style:normal;font-variant:normal;font-weight:normal;font-stretch:normal;font-size:9.67636px;font-family:Helvetica;-inkscape-font-specification:'Helvetica, Normal';font-variant-ligatures:normal;font-variant-caps:normal;font-variant-numeric:normal;font-variant-east-asian:normal;white-space:pre;shape-inside:url(#rect7-34-1-5-6-26);display:inline;fill:#666666;fill-opacity:1;fill-rule:nonzero;stroke:none;stroke-width:0.0178742;stroke-linecap:square;stroke-linejoin:round;stroke-dasharray:none;stroke-opacity:1"
       x="108.16931"
       y="290.97919"
       id="text7-2-5-4-5-30"
       transform="matrix(1.0208155,0,0,1.0208155,2.2254234,-21.05352)"><tspan
         x="385.49805"
         y="666.85246"
         id="tspan13">Share apps instantly with a </tspan><tspan
         x="385.49805"
         y="678.94792"
         id="tspan14">public link.</tspan></text><rect
       style="fill:none;fill-opacity:1;fill-rule:nonzero;stroke:none;stroke-width:0.0553807;stroke-linecap:square;stroke-linejoin:round;stroke-dasharray:none;stroke-opacity:1"
       id="rect7-34-1-5-6-26-9"
       width="126.67599"
       height="25.887161"
       x="391.26099"
       y="733.21832" /><text
       xml:space="preserve"
       style="font-style:normal;font-variant:normal;font-weight:normal;font-stretch:normal;font-size:9.67636px;font-family:Helvetica;-inkscape-font-specification:'Helvetica, Normal';font-variant-ligatures:normal;font-variant-caps:normal;font-variant-numeric:normal;font-variant-east-asian:normal;white-space:pre;shape-inside:url(#rect7-34-1-5-6-26-9);display:inline;fill:#666666;fill-opacity:1;fill-rule:nonzero;stroke:none;stroke-width:0.0178742;stroke-linecap:square;stroke-linejoin:round;stroke-dasharray:none;stroke-opacity:1"
       x="108.16931"
       y="290.97919"
       id="text7-2-5-4-5-30-1"
       transform="matrix(1.0208155,0,0,1.0208155,-3.6721864,-27.381673)"><tspan
         x="391.26172"
         y="742.3173"
         id="tspan15">Coming soon: cloud builds &amp; </tspan><tspan
         x="391.26172"
         y="754.41276"
         id="tspan16">publishing.</tspan></text></g></svg>
