<?xml version="1.0" encoding="UTF-8" standalone="no"?>
<!-- Created with Inkscape (http://www.inkscape.org/) -->

<svg
   width="1.1811028in"
   height="1.1810888in"
   viewBox="0 0 30.00001 29.999656"
   version="1.1"
   id="svg1"
   xml:space="preserve"
   xmlns="http://www.w3.org/2000/svg"
   xmlns:svg="http://www.w3.org/2000/svg"><defs
     id="defs1" /><g
     id="layer1"
     transform="translate(-349.1506,-703.44214)"><rect
       style="fill:none;fill-opacity:1;fill-rule:nonzero;stroke:none;stroke-width:0.817852;stroke-linecap:square;stroke-linejoin:round;stroke-dasharray:none;stroke-opacity:1"
       id="rect22-4"
       width="700.58136"
       height="30.549423"
       x="-208.49167"
       y="515.67291" /><text
       xml:space="preserve"
       style="font-style:normal;font-variant:normal;font-weight:normal;font-stretch:normal;font-size:19.1859px;line-height:1.3;font-family:Helvetica;-inkscape-font-specification:'Helvetica, Normal';font-variant-ligatures:normal;font-variant-caps:normal;font-variant-numeric:normal;font-variant-east-asian:normal;text-align:center;white-space:pre;shape-inside:url(#rect22-4);display:inline;fill:#1a1a1a;fill-opacity:1;fill-rule:nonzero;stroke:none;stroke-width:0.266331;stroke-linecap:square;stroke-linejoin:round;stroke-dasharray:none;stroke-opacity:1"
       x="587.22534"
       y="153.94383"
       id="text8-2-4"
       transform="matrix(0.82743077,0,0,0.82743077,187.51816,-327.17061)"
       dx="0 0 0 0 0 0 0 0 0 0 0 0 0 0 0 0 0 0 0 0 0 0 0 0 0 0 0 0 0 0 0 0 0 0 0 0 0 0 0 0 0 0 0 0 0 0 0 0 0 0 0 0 0 0 0 0 0 0 0 0 0 0 0 0"><tspan
         x="-142.92161"
         y="534.19372"
         id="tspan1">Browser-based workspace for building cross-platform Python apps. </tspan></text><rect
       style="fill:none;fill-opacity:1;fill-rule:nonzero;stroke:none;stroke-width:0.817852;stroke-linecap:square;stroke-linejoin:round;stroke-dasharray:none;stroke-opacity:1"
       id="rect22-4-6"
       width="961.01294"
       height="38.245068"
       x="-171.24258"
       y="723.36621" /><text
       xml:space="preserve"
       style="font-style:normal;font-variant:normal;font-weight:normal;font-stretch:normal;font-size:20.7844px;line-height:1.3;font-family:Helvetica;-inkscape-font-specification:'Helvetica, Normal';font-variant-ligatures:normal;font-variant-caps:normal;font-variant-numeric:normal;font-variant-east-asian:normal;text-align:center;white-space:pre;shape-inside:url(#rect22-4-6);display:inline;fill:#4d4d4d;fill-opacity:1;fill-rule:nonzero;stroke:none;stroke-width:0.266331;stroke-linecap:square;stroke-linejoin:round;stroke-dasharray:none;stroke-opacity:1"
       x="587.22534"
       y="153.94383"
       id="text8-2-4-1"
       transform="matrix(0.59571023,0,0,0.59571023,112.98953,-287.41498)"><tspan
         x="10.03122"
         y="743.43009"
         id="tspan2">No downloads. No setup. Just write, run, and share Python apps.</tspan></text><rect
       style="fill:none;fill-opacity:1;fill-rule:nonzero;stroke:none;stroke-width:0.817852;stroke-linecap:square;stroke-linejoin:round;stroke-dasharray:none;stroke-opacity:1"
       id="rect22-4-6-5"
       width="961.01294"
       height="38.245068"
       x="-261.9375"
       y="421.33533" /><text
       xml:space="preserve"
       style="font-style:normal;font-variant:normal;font-weight:normal;font-stretch:normal;font-size:17.808px;line-height:1.3;font-family:Helvetica;-inkscape-font-specification:'Helvetica, Normal';font-variant-ligatures:normal;font-variant-caps:normal;font-variant-numeric:normal;font-variant-east-asian:normal;text-align:center;white-space:pre;shape-inside:url(#rect22-4-6-5);display:inline;fill:#1a1a1a;fill-opacity:1;fill-rule:nonzero;stroke:none;stroke-width:0.266331;stroke-linecap:square;stroke-linejoin:round;stroke-dasharray:none;stroke-opacity:1"
       x="587.22534"
       y="153.94383"
       id="text8-2-4-1-2"
       transform="matrix(0.69335364,0,0,0.69335364,256.16145,533.09794)"><tspan
         x="162.63674"
         y="438.52576"
         id="tspan3">https://flet.app</tspan></text><rect
       style="fill:none;fill-opacity:1;fill-rule:nonzero;stroke:none;stroke-width:0.817852;stroke-linecap:square;stroke-linejoin:round;stroke-dasharray:none;stroke-opacity:1"
       id="rect22-4-6-5-9"
       width="961.01294"
       height="38.245068"
       x="24.606251"
       y="583.67084" /><text
       xml:space="preserve"
       style="font-style:normal;font-variant:normal;font-weight:normal;font-stretch:normal;font-size:24.5427px;line-height:1.3;font-family:Helvetica;-inkscape-font-specification:'Helvetica, Normal';font-variant-ligatures:normal;font-variant-caps:normal;font-variant-numeric:normal;font-variant-east-asian:normal;text-align:center;white-space:pre;shape-inside:url(#rect22-4-6-5-9);display:inline;fill:#1a1a1a;fill-opacity:1;fill-rule:nonzero;stroke:none;stroke-width:0.266331;stroke-linecap:square;stroke-linejoin:round;stroke-dasharray:none;stroke-opacity:1"
       x="587.22534"
       y="153.94383"
       id="text8-2-4-1-2-6"
       transform="matrix(0.50309193,0,0,0.50309193,-68.278289,532.00174)"><tspan
         x="425.77395"
         y="607.36066"
         id="tspan4">Try Flet Studio</tspan></text><rect
       style="fill:none;fill-opacity:1;fill-rule:nonzero;stroke:none;stroke-width:0.0553807;stroke-linecap:square;stroke-linejoin:round;stroke-dasharray:none;stroke-opacity:1"
       id="rect7-34-1-5"
       width="126.67599"
       height="25.887161"
       x="97.686363"
       y="563.03333" /><text
       xml:space="preserve"
       style="font-style:normal;font-variant:normal;font-weight:normal;font-stretch:normal;font-size:9.67636px;font-family:Helvetica;-inkscape-font-specification:'Helvetica, Normal';font-variant-ligatures:normal;font-variant-caps:normal;font-variant-numeric:normal;font-variant-east-asian:normal;white-space:pre;shape-inside:url(#rect7-34-1-5);display:inline;fill:#666666;fill-opacity:1;fill-rule:nonzero;stroke:none;stroke-width:0.0178742;stroke-linecap:square;stroke-linejoin:round;stroke-dasharray:none;stroke-opacity:1"
       x="108.16931"
       y="290.97919"
       id="text7-2-5-4"
       transform="matrix(1.0208155,0,0,1.0208155,29.460133,2.0848097)"><tspan
         x="97.685547"
         y="572.13176"
         id="tspan5">Manage project files directly </tspan><tspan
         x="97.685547"
         y="584.22721"
         id="tspan6">in the browser.</tspan></text><rect
       style="fill:none;fill-opacity:1;fill-rule:nonzero;stroke:none;stroke-width:0.0553807;stroke-linecap:square;stroke-linejoin:round;stroke-dasharray:none;stroke-opacity:1"
       id="rect7-34-1-5-6"
       width="126.67599"
       height="25.887161"
       x="108.21458"
       y="586.31665" /><text
       xml:space="preserve"
       style="font-style:normal;font-variant:normal;font-weight:normal;font-stretch:normal;font-size:9.67636px;font-family:Helvetica;-inkscape-font-specification:'Helvetica, Normal';font-variant-ligatures:normal;font-variant-caps:normal;font-variant-numeric:normal;font-variant-east-asian:normal;white-space:pre;shape-inside:url(#rect7-34-1-5-6);display:inline;fill:#666666;fill-opacity:1;fill-rule:nonzero;stroke:none;stroke-width:0.0178742;stroke-linecap:square;stroke-linejoin:round;stroke-dasharray:none;stroke-opacity:1"
       x="108.16931"
       y="290.97919"
       id="text7-2-5-4-5"
       transform="matrix(1.0208155,0,0,1.0208155,19.715983,52.929322)"><tspan
         x="108.21484"
         y="595.41496"
         id="tspan7">500+ examples, templates </tspan><tspan
         x="108.21484"
         y="607.51042"
         id="tspan8">and apps to start from.</tspan></text><rect
       style="fill:none;fill-opacity:1;fill-rule:nonzero;stroke:none;stroke-width:0.0553807;stroke-linecap:square;stroke-linejoin:round;stroke-dasharray:none;stroke-opacity:1"
       id="rect7-34-1-5-6-0"
       width="143.26402"
       height="26.923914"
       x="100.27708"
       y="650.34583" /><text
       xml:space="preserve"
       style="font-style:normal;font-variant:normal;font-weight:normal;font-stretch:normal;font-size:9.67636px;font-family:Helvetica;-inkscape-font-specification:'Helvetica, Normal';font-variant-ligatures:normal;font-variant-caps:normal;font-variant-numeric:normal;font-variant-east-asian:normal;white-space:pre;shape-inside:url(#rect7-34-1-5-6-0);display:inline;fill:#666666;fill-opacity:1;fill-rule:nonzero;stroke:none;stroke-width:0.0178742;stroke-linecap:square;stroke-linejoin:round;stroke-dasharray:none;stroke-opacity:1"
       x="108.16931"
       y="290.97919"
       id="text7-2-5-4-5-4"
       transform="matrix(1.0208155,0,0,1.0208155,26.760372,57.946522)"><tspan
         x="100.27734"
         y="659.44426"
         id="tspan9">Collaborate and remix projects </tspan><tspan
         x="100.27734"
         y="671.53971"
         id="tspan10">effortlessly.</tspan></text><rect
       style="fill:none;fill-opacity:1;fill-rule:nonzero;stroke:none;stroke-width:0.0553807;stroke-linecap:square;stroke-linejoin:round;stroke-dasharray:none;stroke-opacity:1"
       id="rect7-34-1-5-6-2"
       width="126.67599"
       height="25.887161"
       x="338.40207"
       y="551.92084" /><text
       xml:space="preserve"
       style="font-style:normal;font-variant:normal;font-weight:normal;font-stretch:normal;font-size:9.67636px;font-family:Helvetica;-inkscape-font-specification:'Helvetica, Normal';font-variant-ligatures:normal;font-variant-caps:normal;font-variant-numeric:normal;font-variant-east-asian:normal;white-space:pre;shape-inside:url(#rect7-34-1-5-6-2);display:inline;fill:#666666;fill-opacity:1;fill-rule:nonzero;stroke:none;stroke-width:0.0178742;stroke-linecap:square;stroke-linejoin:round;stroke-dasharray:none;stroke-opacity:1"
       x="108.16931"
       y="290.97919"
       id="text7-2-5-4-5-3"
       transform="matrix(1.0208155,0,0,1.0208155,51.437007,12.899456)"><tspan
         x="338.40234"
         y="561.01847"
         id="tspan11">Restore previous versions </tspan><tspan
         x="338.40234"
         y="573.11393"
         id="tspan12">anytime.</tspan></text><rect
       style="fill:none;fill-opacity:1;fill-rule:nonzero;stroke:none;stroke-width:0.0553807;stroke-linecap:square;stroke-linejoin:round;stroke-dasharray:none;stroke-opacity:1"
       id="rect7-34-1-5-6-26"
       width="126.67599"
       height="25.887161"
       x="385.49786"
       y="657.75415" /><text
       xml:space="preserve"
       style="font-style:normal;font-variant:normal;font-weight:normal;font-stretch:normal;font-size:9.67636px;font-family:Helvetica;-inkscape-font-specification:'Helvetica, Normal';font-variant-ligatures:normal;font-variant-caps:normal;font-variant-numeric:normal;font-variant-east-asian:normal;white-space:pre;shape-inside:url(#rect7-34-1-5-6-26);display:inline;fill:#666666;fill-opacity:1;fill-rule:nonzero;stroke:none;stroke-width:0.0178742;stroke-linecap:square;stroke-linejoin:round;stroke-dasharray:none;stroke-opacity:1"
       x="108.16931"
       y="290.97919"
       id="text7-2-5-4-5-30"
       transform="matrix(1.0208155,0,0,1.0208155,2.2254234,-21.05352)"><tspan
         x="385.49805"
         y="666.85246"
         id="tspan13">Share apps instantly with a </tspan><tspan
         x="385.49805"
         y="678.94792"
         id="tspan14">public link.</tspan></text><rect
       style="fill:none;fill-opacity:1;fill-rule:nonzero;stroke:none;stroke-width:0.0553807;stroke-linecap:square;stroke-linejoin:round;stroke-dasharray:none;stroke-opacity:1"
       id="rect7-34-1-5-6-26-9"
       width="126.67599"
       height="25.887161"
       x="391.26099"
       y="733.21832" /><text
       xml:space="preserve"
       style="font-style:normal;font-variant:normal;font-weight:normal;font-stretch:normal;font-size:9.67636px;font-family:Helvetica;-inkscape-font-specification:'Helvetica, Normal';font-variant-ligatures:normal;font-variant-caps:normal;font-variant-numeric:normal;font-variant-east-asian:normal;white-space:pre;shape-inside:url(#rect7-34-1-5-6-26-9);display:inline;fill:#666666;fill-opacity:1;fill-rule:nonzero;stroke:none;stroke-width:0.0178742;stroke-linecap:square;stroke-linejoin:round;stroke-dasharray:none;stroke-opacity:1"
       x="108.16931"
       y="290.97919"
       id="text7-2-5-4-5-30-1"
       transform="matrix(1.0208155,0,0,1.0208155,-3.6721864,-27.381673)"><tspan
         x="391.26172"
         y="742.3173"
         id="tspan15">Coming soon: cloud builds &amp; </tspan><tspan
         x="391.26172"
         y="754.41276"
         id="tspan16">publishing.</tspan></text><g
       id="g697"
       transform="matrix(0.90317153,0,0,0.90317153,74.192656,56.40398)"><path
         opacity="0.5"
         d="m 311.11562,732.29113 0.81931,-0.81942 -0.001,-10e-4 z m 6.71457,-6.34854 c 0.53812,0.34634 1.25511,0.19087 1.60148,-0.34723 0.34621,-0.5381 0.1908,-1.25507 -0.34729,-1.60141 z m -0.34499,-1.59997 0.62712,-0.97431 v 0 z m -3.96985,-2.03698 0.1694,-1.14623 z m -7.57236,4.56587 0.81807,0.82056 v 0 z m 4.81126,-4.21301 0.44405,1.07022 v 0 z m -3.82561,6.38021 -0.42684,1.07719 h 10e-6 z m 0.19036,0.0762 0.44138,-1.07131 v 0 z m 2.51238,1.69639 0.81807,-0.8205 z m -0.14553,-0.14414 -0.80688,0.83162 z m -3.14219,-1.86021 0.42684,-1.07719 v 0 z m 15.47304,14.25022 -0.81926,0.81926 c 0.0179,0.0179 0.0363,0.0352 0.0555,0.0521 z m 8.22478,-8.13873 c -0.34776,-0.53717 -1.06506,-0.69073 -1.60222,-0.34282 -0.53717,0.34776 -0.69073,1.06522 -0.34297,1.60223 z m -0.34498,1.59882 -0.97267,0.62986 z m 2.04314,3.95806 1.14602,-0.17041 z m -4.57972,7.54965 0.81818,0.8205 z m 4.22579,-4.79694 1.06923,0.44633 z m -6.09451,4.57926 1.07634,-0.42902 z m -0.7326,-1.68688 1.01593,-0.55725 z m -1.93407,-2.3549 0.81803,-0.82066 -0.0263,-0.0261 -0.028,-0.0246 z m 1.26358,1.3385 0.91196,-0.71467 z m 3.14204,3.05027 -0.81803,-0.8205 z m -7.94577,-24.16029 -0.97206,-0.62564 -1.25422,1.94864 0.97209,0.62564 z m -0.97206,-0.62564 c -0.96008,-0.6179 -1.73495,-1.11757 -2.40185,-1.47693 -0.68148,-0.36721 -1.31985,-0.62765 -2.02572,-0.73197 l -0.33878,2.29246 c 0.33895,0.0501 0.71049,0.18062 1.26523,0.47954 0.5693,0.30677 1.25694,0.74839 2.2469,1.38554 z m -11.35126,4.32376 c 0.86988,-0.86725 1.80291,-1.79714 2.64139,-2.56206 0.41894,-0.38218 0.80044,-0.71038 1.12768,-0.9626 0.34519,-0.26606 0.56415,-0.39554 0.66817,-0.43869 l -0.88811,-2.14044 c -0.39741,0.1649 -0.81422,0.45039 -1.19475,0.74369 -0.39846,0.30713 -0.83258,0.68263 -1.27478,1.08602 -0.88377,0.80623 -1.85494,1.77479 -2.71573,2.63297 z m 6.92369,-6.53266 c -1.135,-0.16774 -2.30205,-0.0161 -3.37456,0.42887 l 0.88811,2.14044 c 0.69624,-0.28888 1.43987,-0.38145 2.14767,-0.27685 z m -7.76792,8.7247 0.58497,0.23179 0.85367,-2.15439 -0.58497,-0.23179 z m 2.89647,1.74765 1.48424,1.47987 1.63617,-1.64116 -1.48426,-1.47971 z m -2.31149,-1.51586 c 0.0983,0.0389 0.13765,0.0545 0.1758,0.0703 l 0.88277,-2.14263 c -0.056,-0.0231 -0.11214,-0.0453 -0.20491,-0.082 z m 3.94764,-0.12514 c -0.0706,-0.0704 -0.11332,-0.11306 -0.15674,-0.15519 l -1.61374,1.66317 c 0.0296,0.0286 0.0595,0.0585 0.13433,0.13302 z m -3.77184,0.19543 c 0.74489,0.30697 1.42409,0.75237 2.00136,1.31255 l 1.61374,-1.66317 c -0.78853,-0.76508 -1.71586,-1.37322 -2.73233,-1.79201 z m -1.55268,-4.13523 c -1.19544,1.19182 -0.77394,3.21269 0.7919,3.83315 l 0.85367,-2.15439 c -0.007,-0.003 -0.01,-0.005 -0.0101,-0.005 -5.9e-4,-4.3e-4 -7.6e-4,-6.1e-4 -9.6e-4,-8.8e-4 -7.3e-4,-8.6e-4 -0.003,-0.005 -0.005,-0.0117 -10e-4,-0.007 -4.9e-4,-0.0113 -3.5e-4,-0.0118 2e-5,-5e-5 -3e-5,10e-6 1.5e-4,-3.1e-4 1e-4,-1.4e-4 0.002,-0.003 0.007,-0.008 z m 22.97136,10.12685 0.62754,0.96927 1.94519,-1.25956 -0.62754,-0.96912 z m -1.7544,11.02647 -0.12977,0.12946 1.63606,1.64116 0.12992,-0.12947 z m 2.38194,-10.0572 c 0.63913,0.98704 1.08205,1.67236 1.38949,2.23981 0.29971,0.55277 0.43026,0.92231 0.48016,1.25879 l 2.29218,-0.34081 c -0.1049,-0.7054 -0.36661,-1.34268 -0.73507,-2.02244 -0.36043,-0.66508 -0.86175,-1.43784 -1.48157,-2.39491 z m -0.74573,11.69835 c 0.86067,-0.85819 1.83226,-1.82654 2.64087,-2.7076 0.40461,-0.44092 0.78126,-0.8738 1.08947,-1.27115 0.29399,-0.37928 0.58073,-0.79532 0.7465,-1.19236 l -2.13847,-0.89265 c -0.0429,0.10289 -0.17256,0.32088 -0.43937,0.66508 -0.25305,0.32613 -0.58212,0.70649 -0.96541,1.12408 -0.7672,0.83595 -1.69986,1.76629 -2.5698,2.63345 z m 2.61538,-8.19975 c 0.10459,0.70355 0.0122,1.4431 -0.27701,2.13599 l 2.13847,0.89265 c 0.44694,-1.07047 0.59927,-2.23595 0.43072,-3.36945 z m -7.20515,2.24846 -0.80783,-0.70819 -1.5276,1.7425 0.80768,0.70819 z m 2.97921,4.48409 c -0.3317,-0.83208 -0.53099,-1.33742 -0.79301,-1.81511 l -2.0317,1.1145 c 0.17812,0.32474 0.32041,0.67651 0.67203,1.55866 z m -4.56119,-2.79226 c 0.67327,0.67126 0.94116,0.941 1.1698,1.23283 l 1.82392,-1.4295 c -0.33602,-0.42887 -0.7224,-0.81139 -1.35751,-1.44449 z m 3.76818,0.97715 c -0.22571,-0.41156 -0.48479,-0.80428 -0.77446,-1.17382 l -1.82392,1.4295 c 0.21196,0.27036 0.40153,0.55772 0.56668,0.85882 z m 0.63759,1.77062 c 0.01,-0.01 0.0259,-0.0198 0.0439,-0.0247 0.0151,-0.004 0.0266,-0.004 0.0346,-0.002 0.008,0.002 0.0212,0.006 0.0371,0.0185 0.0181,0.0145 0.0326,0.0346 0.0399,0.0528 l -2.15268,0.85805 c 0.59325,1.4879 2.52114,1.8474 3.63332,0.73862 z m -3.57616,-5.09588 -0.43442,-0.43443 -1.63853,1.63853 0.43443,0.43443 z m -12.33965,-9.12747 0.27227,0.27221 1.63862,-1.63853 -0.27227,-0.27236 z"
         fill="#1c274c"
         id="path2-0"
         style="opacity:1;fill:#ff005f;fill-opacity:1;stroke-width:1.54491" /><path
         opacity="0.5"
         d="m 319.27718,736.36706 c 0.45312,-0.45173 0.4542,-1.18541 0.002,-1.63853 -0.45188,-0.45328 -1.18556,-0.45436 -1.63868,-0.002 z m -3.18262,3.17308 3.18262,-3.17308 -1.63621,-1.641 -3.18256,3.17293 z m 12.15498,-11.16013 c -0.71962,0.7174 -1.88772,0.7174 -2.60734,0 l -1.63606,1.64103 c 1.62386,1.61922 4.25545,1.61922 5.87946,0 z m -2.60734,0 c -0.71761,-0.7155 -0.71761,-1.8741 0,-2.58959 l -1.63606,-1.6411 c -1.62601,1.62104 -1.62601,4.25072 0,5.87172 z m 0,-2.58959 c 0.71962,-0.71743 1.88772,-0.71743 2.60734,0 l 1.63606,-1.6411 c -1.62401,-1.61911 -4.2556,-1.61911 -5.87946,0 z m 2.60734,0 c 0.71761,0.71549 0.71761,1.87409 0,2.58959 l 1.63606,1.64103 c 1.62602,-1.621 1.62602,-4.25068 0,-5.87172 z"
         fill="#1c274c"
         id="path3-6"
         style="opacity:1;fill:#ff005f;fill-opacity:1;stroke-width:1.54491" /><path
         d="m 314.21561,737.66123 0.81808,-0.8205 z m 0,-8.46134 -0.81807,-0.82055 v 0 z m 10.60856,10.57662 -0.81818,-0.8205 z m -8.48686,0 -0.81807,0.82066 z m 4.24346,2.99156 v 1.15868 z m 13.27617,-11.99729 0.81818,0.82066 z m -10.60842,-10.57665 0.81803,0.82054 z m -1.86609,22.42795 0.40044,1.08731 z m -9.99438,-10.05936 1.07502,0.43227 z m 21.65086,-2.61244 -9.03292,9.00573 1.63621,1.64116 9.03292,-9.00573 z m -15.88352,9.00573 -2.1217,-2.11528 -1.63617,1.641 2.12172,2.11544 z m -2.1217,-8.93559 9.03286,-9.00575 -1.63621,-1.64108 -9.0328,9.00575 z m 14.57985,-11.29621 h 0.8789 v -2.31736 h -0.8789 z m 5.72126,4.82439 v 0.87621 h 2.31736 v -0.87621 z m -4.84236,-4.82439 c 1.44712,0 2.41624,0.002 3.13848,0.0993 0.68918,0.0924 0.97746,0.25125 1.16563,0.4388 l 1.63622,-1.64108 c -0.69073,-0.68866 -1.54908,-0.96789 -2.49395,-1.09455 -0.91196,-0.12224 -2.06461,-0.11979 -3.44638,-0.11979 z m 7.15972,4.82439 c 0,-1.37736 0.002,-2.5273 -0.12019,-3.43737 -0.1273,-0.94376 -0.40801,-1.80092 -1.0992,-2.49004 l -1.63622,1.64108 c 0.18771,0.18707 0.34637,0.47313 0.43876,1.15865 0.097,0.71921 0.0995,1.68461 0.0995,3.12768 z m -22.61847,13.29213 c -1.02339,-1.02042 -1.70661,-1.70497 -2.14833,-2.28214 -0.42136,-0.55061 -0.5116,-0.86469 -0.5116,-1.12809 h -2.31736 c 0,0.97591 0.40983,1.78004 0.98865,2.53643 0.55846,0.72966 1.37552,1.54089 2.35247,2.5148 z m 0.48555,3.75644 c 0.977,0.97406 1.79052,1.78854 2.52232,2.34532 0.75871,0.57703 1.5636,0.98426 2.53921,0.98426 v -2.31736 c -0.26742,0 -0.58397,-0.0913 -1.13612,-0.51136 -0.57919,-0.44046 -1.2659,-1.12176 -2.28926,-2.14202 z m 19.15588,-9.00573 c 1.23361,-1.23006 2.09397,-2.05886 2.5457,-3.14616 l -2.14,-0.8891 c -0.23344,0.56198 -0.67389,1.03018 -2.04191,2.3941 z m 0.65968,-7.16663 c 0,1.92896 -0.0205,2.56978 -0.25398,3.13137 l 2.14,0.8891 c 0.45189,-1.08769 0.43134,-2.28104 0.43134,-4.02047 z m -11.26825,-3.41014 c 1.36755,-1.36352 1.83767,-1.80332 2.40264,-2.03662 l -0.88461,-2.14191 c -1.08932,0.44988 -1.92002,1.30703 -3.15424,2.53745 z m 5.54699,-4.60782 c -1.74528,0 -2.93996,-0.0204 -4.02896,0.42929 l 0.88461,2.14191 c 0.56528,-0.23343 1.21028,-0.25384 3.14435,-0.25384 z m -5.60755,22.54916 c -0.78991,0.7876 -1.38424,1.3793 -1.89499,1.82037 -0.5126,0.44261 -0.85804,0.65859 -1.12901,0.75839 l 0.80088,2.17462 c 0.66106,-0.24348 1.25724,-0.67343 1.84276,-1.17923 0.58769,-0.5075 1.24813,-1.16687 2.01657,-1.93299 z m -3.024,2.57876 c -0.14275,0.0527 -0.27021,0.0746 -0.40122,0.0746 v 2.31736 c 0.41821,0 0.81618,-0.0752 1.2021,-0.21736 z m -7.58445,-13.15543 c -0.75002,0.74777 -1.39757,1.39255 -1.90032,1.96628 -0.50067,0.57146 -0.92887,1.14988 -1.18418,1.78484 l 2.15003,0.86453 c 0.10966,-0.27268 0.33521,-0.61781 0.77706,-1.12207 0.43977,-0.50194 1.02351,-1.08484 1.79356,-1.8525 z m -3.0845,3.75112 c -0.1667,0.41449 -0.25664,0.84444 -0.25664,1.30004 h 2.31736 c 0,-0.1392 0.0254,-0.27654 0.0893,-0.43551 z"
         fill="#1c274c"
         id="path1-00"
         style="fill:#00cbff;fill-opacity:1;stroke-width:1.54491" /></g></g></svg>
