<?xml version="1.0" encoding="UTF-8" standalone="no"?>
<svg
   viewBox="0 0 396.46747 509.99994"
   role="img"
   aria-label="Flet"
   version="1.1"
   id="svg4"
   width="396.46747"
   height="509.99994"
   xml:space="preserve"
   xmlns="http://www.w3.org/2000/svg"
   xmlns:svg="http://www.w3.org/2000/svg"
   xmlns:rdf="http://www.w3.org/1999/02/22-rdf-syntax-ns#"
   xmlns:cc="http://creativecommons.org/ns#"
   xmlns:dc="http://purl.org/dc/elements/1.1/"><defs
     id="defs4" /><title
     id="title1">Flet</title><metadata
     id="metadata8"><rdf:RDF><cc:Work
         rdf:about=""><dc:title>Flet</dc:title></cc:Work></rdf:RDF></metadata><g
     id="g4"
     transform="matrix(1.7561529,0,0,1.7561529,-123.64424,-1000.5225)"><g
       id="g3-7-5-9"
       transform="matrix(0.88898496,0,0,0.88898496,-903.09959,1089.086)"><path
         d="m 1231.3122,-409.73702 c -7.4909,-7.80181 -7.4909,-14.48913 0,-22.29095 21.4026,-22.29096 53.5071,-50.15464 107.0139,-66.87286 7.4907,0 10.7012,3.34365 10.7012,11.1455 -12.3338,52.97014 -15.2054,81.27375 0,133.74567 0,8.0191 -3.0016,11.14548 -10.7012,11.14548 -53.5068,-16.71821 -85.6113,-44.5819 -107.0139,-66.87284 z"
         id="path2-6-5-3-0-5-8-10-3-8"
         style="display:inline;mix-blend-mode:normal;fill:#27b0f5;fill-opacity:1;stroke-width:2.13983;stroke-dasharray:none" /><path
         d="m 1104.6769,-444.22416 c 12.8016,-17.49935 64.0079,-87.49683 172.822,-139.99492 19.2022,0 19.2022,5.83312 19.2022,17.49936 -38.4047,99.16308 -38.4047,192.49303 0,291.65612 0,10.08688 0,17.94809 -19.2022,17.49937 -102.413,-46.66497 -160.0204,-122.49558 -172.822,-139.99494 -12.8015,-17.49938 -12.8015,-29.16562 0,-46.66499 z"
         id="path1-7-1-7-9-5-9-6-0-1"
         style="fill:#ff005f;fill-opacity:1;stroke-width:0;stroke-dasharray:none" /><path
         id="path5-7-0-3-8-3-0-1-1"
         style="display:inline;mix-blend-mode:normal;fill:#8c0075;fill-opacity:1;stroke-width:1.82788;stroke-dasharray:none"
         d="m 1230.349,-430.69723 c -6.2066,6.87087 -6.2066,12.76018 0,19.63108 10.2598,11.35788 22.4747,23.67747 40.3877,35.46954 -3.7777,-30.37498 -3.7369,-62.29377 -0.017,-90.52898 0,0 -30.1107,24.07048 -40.3705,35.42836 z" /></g></g></svg>
