<?xml version="1.0" encoding="UTF-8" standalone="no"?>
<!-- Created with Inkscape (http://www.inkscape.org/) -->

<svg
   version="1.1"
   width="360"
   height="540"
   id="svg2"
   inkscape:version="0.48.4 r9939"
   sodipodi:docname="English_pattern_playing_cards_deck.svg"
   inkscape:export-filename="D:\Users\Дмитрий\Desktop\яяяяПрочее\cards\Anglo-american_playing_cards_deck.png"
   inkscape:export-xdpi="90"
   inkscape:export-ydpi="90"
   xmlns:inkscape="http://www.inkscape.org/namespaces/inkscape"
   xmlns:sodipodi="http://sodipodi.sourceforge.net/DTD/sodipodi-0.dtd"
   xmlns="http://www.w3.org/2000/svg"
   xmlns:svg="http://www.w3.org/2000/svg"
   xmlns:rdf="http://www.w3.org/1999/02/22-rdf-syntax-ns#"
   xmlns:cc="http://creativecommons.org/ns#"
   xmlns:dc="http://purl.org/dc/elements/1.1/">
  <sodipodi:namedview
     pagecolor="#ffffff"
     bordercolor="#666666"
     borderopacity="1"
     objecttolerance="10"
     gridtolerance="10"
     guidetolerance="10"
     inkscape:pageopacity="0"
     inkscape:pageshadow="2"
     inkscape:window-width="1366"
     inkscape:window-height="741"
     id="namedview7377"
     showgrid="true"
     inkscape:zoom="0.22960784"
     inkscape:cx="2550"
     inkscape:cy="1155"
     inkscape:window-x="-9"
     inkscape:window-y="-9"
     inkscape:window-maximized="1"
     inkscape:current-layer="svg2"
     inkscape:showpageshadow="2"
     inkscape:pagecheckerboard="0"
     inkscape:deskcolor="#d1d1d1">
    <inkscape:grid
       type="xygrid"
       id="grid10354"
       empspacing="5"
       visible="true"
       enabled="true"
       snapvisiblegridlinesonly="true"
       spacingx="390"
       spacingy="570"
       originy="30"
       originx="30" />
  </sodipodi:namedview>
  <metadata
     id="metadata14752">
    <rdf:RDF>
      <cc:Work
         rdf:about="">
        <dc:format>image/svg+xml</dc:format>
        <dc:type
           rdf:resource="http://purl.org/dc/dcmitype/StillImage" />
        <dc:title />
      </cc:Work>
    </rdf:RDF>
  </metadata>
  <defs
     id="defs14750" />
  <g
     transform="translate(0,-512.36218)"
     id="g2996">
    <rect
       rx="29.944447"
       ry="29.944447"
       y="512.86218"
       x="0.5"
       height="539"
       width="359"
       id="rect6472-0"
       style="fill:#ffffff;stroke:#000000;stroke-width:1" />
    <path
       style="fill:#ff5555;fill-opacity:1;stroke:none"
       id="rect3163-5-18-0-7-9"
       d="m 30,542.36208 c -5.54,0 -10,4.46 -10,10 v 5 c 0,3.0036 1.323,5.67 3.4063,7.5 -2.0833,1.83 -3.4063,4.4964 -3.4063,7.5 v 10 c 0,5.54 4.46,10 10,10 5.54,0 10,-4.46 10,-10 v -10 c 0,-3.0036 -1.323,-5.67 -3.4062,-7.5 2.0832,-1.83 3.4062,-4.4964 3.4062,-7.5 v -5 c 0,-5.54 -4.46,-10 -10,-10 z m 0,5 c 2.77,0 5,2.23 5,5 v 5 c 0,2.77 -2.23,5 -5,5 -2.77,0 -5,-2.23 -5,-5 v -5 c 0,-2.77 2.23,-5 5,-5 z m 0,20 c 2.77,0 5,2.23 5,5 v 10 c 0,2.77 -2.23,5 -5,5 -2.77,0 -5,-2.23 -5,-5 v -10 c 0,-2.77 2.23,-5 5,-5 z"
       inkscape:connector-curvature="0" />
    <path
       style="fill:#ff5555;fill-opacity:1;stroke:none"
       id="rect3163-5-18-0-7-4-7"
       d="m 330,1022.3621 c -5.54,0 -10,-4.46 -10,-10 v -5 c 0,-3.0036 1.323,-5.67 3.4063,-7.5 C 321.323,998.0321 320,995.3657 320,992.36208 v -10 c 0,-5.54 4.46,-10 10,-10 5.54,0 10,4.46 10,10 v 10 c 0,3.00362 -1.323,5.67002 -3.4062,7.50002 2.0832,1.83 3.4062,4.4964 3.4062,7.5 v 5 c 0,5.54 -4.46,10 -10,10 z m 0,-5 c 2.77,0 5,-2.23 5,-5 v -5 c 0,-2.77 -2.23,-5 -5,-5 -2.77,0 -5,2.23 -5,5 v 5 c 0,2.77 2.23,5 5,5 z m 0,-20 c 2.77,0 5,-2.23 5,-5.00002 v -10 c 0,-2.77 -2.23,-5 -5,-5 -2.77,0 -5,2.23 -5,5 v 10 c 0,2.77002 2.23,5.00002 5,5.00002 z"
       inkscape:connector-curvature="0" />
    <path
       sodipodi:nodetypes="czczczczc"
       inkscape:connector-curvature="0"
       id="path3204-24-1-3"
       d="m 90,557.36218 c 0,0 6,15 13,25 7,10 17,20 17,20 0,0 -10,10 -17,20 -7,10 -13,25 -13,25 0,0 -6,-15 -13,-25 -7,-10 -17,-20 -17,-20 0,0 10,-10 17,-20 7,-10 13,-25 13,-25"
       style="fill:#ff5555;stroke:none" />
    <path
       sodipodi:nodetypes="czczczczc"
       inkscape:connector-curvature="0"
       id="path3204-24-7-7"
       d="m 270,557.36218 c 0,0 6,15 13,25 7,10 17,20 17,20 0,0 -10,10 -17,20 -7,10 -13,25 -13,25 0,0 -6,-15 -13,-25 -7,-10 -17,-20 -17,-20 0,0 10,-10 17,-20 7,-10 13,-25 13,-25"
       style="fill:#ff5555;stroke:none" />
    <path
       sodipodi:nodetypes="czczczczc"
       inkscape:connector-curvature="0"
       id="path3204-24-4-2"
       d="m 180,647.36218 c 0,0 6,15 13,25 7,10 17,20 17,20 0,0 -10,10 -17,20 -7,10 -13,25 -13,25 0,0 -6,-15 -13,-25 -7,-10 -17,-20 -17,-20 0,0 10,-10 17,-20 7,-10 13,-25 13,-25"
       style="fill:#ff5555;stroke:none" />
    <path
       sodipodi:nodetypes="czczczczc"
       inkscape:connector-curvature="0"
       id="path3204-24-6"
       d="m 90,737.36218 c 0,0 6,15 13,25 7,10 17,20 17,20 0,0 -10,10 -17,20 -7,10 -13,25 -13,25 0,0 -6,-15 -13,-25 -7,-10 -17,-20 -17,-20 0,0 10,-10 17,-20 7,-10 13,-25 13,-25"
       style="fill:#ff5555;stroke:none" />
    <path
       sodipodi:nodetypes="czczczczc"
       inkscape:connector-curvature="0"
       id="path3204-24-0-0"
       d="m 270,737.36218 c 0,0 6,15 13,25 7,10 17,20 17,20 0,0 -10,10 -17,20 -7,10 -13,25 -13,25 0,0 -6,-15 -13,-25 -7,-10 -17,-20 -17,-20 0,0 10,-10 17,-20 7,-10 13,-25 13,-25"
       style="fill:#ff5555;stroke:none" />
    <path
       sodipodi:nodetypes="czczczczc"
       inkscape:connector-curvature="0"
       id="path3204-24-9-1"
       d="m 180,827.36218 c 0,0 6,15 13,25 7,10 17,20 17,20 0,0 -10,10 -17,20 -7,10 -13,25 -13,25 0,0 -6,-15 -13,-25 -7,-10 -17,-20 -17,-20 0,0 10,-10 17,-20 7,-10 13,-25 13,-25"
       style="fill:#ff5555;stroke:none" />
    <path
       sodipodi:nodetypes="czczczczc"
       inkscape:connector-curvature="0"
       id="path3204-24-48-6"
       d="m 90,917.36218 c 0,0 6,15 13,25 7,10 17,20 17,20 0,0 -10,10 -17,20 -7,10 -13,25.00002 -13,25.00002 0,0 -6,-15.00002 -13,-25.00002 -7,-10 -17,-20 -17,-20 0,0 10,-10 17,-20 7,-10 13,-25 13,-25"
       style="fill:#ff5555;stroke:none" />
    <path
       sodipodi:nodetypes="czczczczc"
       inkscape:connector-curvature="0"
       id="path3204-24-8-5"
       d="m 270,917.36218 c 0,0 6,15 13,25 7,10 17,20 17,20 0,0 -10,10 -17,20 -7,10 -13,25.00002 -13,25.00002 0,0 -6,-15.00002 -13,-25.00002 -7,-10 -17,-20 -17,-20 0,0 10,-10 17,-20 7,-10 13,-25 13,-25"
       style="fill:#ff5555;stroke:none" />
    <path
       sodipodi:nodetypes="czczczczc"
       inkscape:connector-curvature="0"
       id="path3204-24-1-2"
       d="m 30,602.36218 c 0,0 3,7.5 6.5,12.5 3.5,5 8.5,10 8.5,10 0,0 -5,5 -8.5,10 -3.5,5 -6.5,12.5 -6.5,12.5 0,0 -3,-7.5 -6.5,-12.5 -3.5,-5 -8.5,-10 -8.5,-10 0,0 5,-5 8.5,-10 3.5,-5 6.5,-12.5 6.5,-12.5"
       style="fill:#ff5555;stroke:none" />
    <path
       sodipodi:nodetypes="czczczczc"
       inkscape:connector-curvature="0"
       id="path3204-24-1-4"
       d="m 330,917.36218 c 0,0 3,7.5 6.5,12.5 3.5,5 8.5,10 8.5,10 0,0 -5,5 -8.5,10 -3.5,5 -6.5,12.5 -6.5,12.5 0,0 -3,-7.5 -6.5,-12.5 -3.5,-5 -8.5,-10 -8.5,-10 0,0 5,-5 8.5,-10 3.5,-5 6.5,-12.5 6.5,-12.5"
       style="fill:#ff5555;stroke:none" />
  </g>
</svg>
