<?xml version="1.0" encoding="UTF-8" standalone="no"?>
<svg
   xml:space="preserve"
   width="95.000038"
   height="123.36957"
   shape-rendering="geometricPrecision"
   text-rendering="geometricPrecision"
   image-rendering="optimizeQuality"
   fill-rule="evenodd"
   clip-rule="evenodd"
   viewBox="0 0 55.882102 72.542007"
   version="1.1"
   id="svg3"
   xmlns="http://www.w3.org/2000/svg"
   xmlns:svg="http://www.w3.org/2000/svg"><defs
   id="defs3" />



<path
   fill="#ee3167"
   d="m 0.16292403,36.453192 c -0.250551,-0.445423 -0.190234,-0.76557 0.03247,-1.215633 C 9.428639,18.084139 23.362023,7.5610247 40.919107,0.03987468 c 0.598536,-0.255191 1.480103,0.445423 1.266671,1.07179802 -2.616859,7.613947 -4.463508,15.0283813 -5.535306,22.9949543 -0.974363,7.340198 -1.243473,14.930946 -0.255191,22.8604 1.048599,8.996611 3.196837,16.462091 5.785857,24.507542 0.287669,0.895478 -0.626376,1.303787 -1.326988,0.960439 C 22.573261,63.433754 8.718753,51.667166 0.16292403,36.453192 Z"
   id="path1"
   style="fill:#ffffff;stroke-width:0.463983" /><path
   fill="#0098da"
   fill-opacity="0.639"
   d="M 54.620507,52.284263 C 44.514976,49.115264 35.471964,43.742351 27.458993,36.643425 c -0.53358,-0.473262 -0.473263,-1.136756 0.0093,-1.596099 7.957294,-7.609307 16.986387,-13.580756 26.971282,-17.802994 0.876926,-0.375826 1.600739,0.352627 1.340909,1.354828 -2.830292,10.852542 -3.452028,21.575169 0.03712,32.325634 0.287669,0.895486 -0.436143,1.5961 -1.197074,1.359469 z"
   id="path2"
   style="fill:#ffffff;fill-opacity:0.639;stroke-width:0.463983" /></svg>
