<?xml version="1.0" encoding="UTF-8"?>
<!DOCTYPE svg PUBLIC "-//W3C//DTD SVG 1.1//EN" "http://www.w3.org/Graphics/SVG/1.1/DTD/svg11.dtd">
<!-- Creator: CorelDRAW 2017 -->
<svg xmlns="http://www.w3.org/2000/svg" xml:space="preserve" width="307px" height="307px" version="1.1"
     shape-rendering="geometricPrecision" text-rendering="geometricPrecision" image-rendering="optimizeQuality"
     fill-rule="evenodd" clip-rule="evenodd"
     viewBox="0 0 285 285"
>
 <g id="Layer_x0020_1">
  <metadata id="CorelCorpID_0Corel-Layer"/>
     <rect fill="none" width="285" height="285" rx="9.03" ry="8.12"/>
     <path fill="#EE3167"
           d="M39.28 144.74c-0.85,-1.52 -0.66,-2.61 0.1,-4.13 31.41,-58.36 78.81,-94.15 138.53,-119.75 2.03,-0.86 5.04,1.52 4.31,3.65 -8.9,25.91 -15.18,51.13 -18.82,78.23 -3.32,24.97 -4.24,50.79 -0.87,77.77 3.56,30.59 10.88,55.99 19.68,83.36 0.98,3.05 -2.14,4.43 -4.51,3.26 -62.19,-30.61 -109.33,-70.65 -138.42,-122.39z"/>
     <path fill="#0098DA" fill-opacity="0.639216"
           d="M224.53 198.59c-34.39,-10.79 -65.15,-29.06 -92.4,-53.2 -1.82,-1.62 -1.61,-3.87 0.03,-5.44 27.07,-25.88 57.79,-46.19 91.74,-60.56 2.99,-1.27 5.45,1.2 4.56,4.62 -9.62,36.91 -11.74,73.39 0.13,109.95 0.98,3.05 -1.47,5.44 -4.06,4.63z"/>
     <path fill="#5ABAE7"
           d="M224.53 198.59c-22.64,-7.1 -43.71,-17.45 -63.24,-30.58 -1.35,-20.9 -1.47,-30.2 0.73,-53.26 19.19,-14.22 39.86,-26.04 61.88,-35.36 2.99,-1.27 5.45,1.2 4.56,4.62 -9.62,36.91 -11.74,73.39 0.13,109.95 0.98,3.05 -1.47,5.44 -4.06,4.63z"/>
 </g>
</svg>
